<?xml version="1.0" encoding="UTF-8" standalone="no"?><svg xmlns="http://www.w3.org/2000/svg" xmlns:xlink="http://www.w3.org/1999/xlink" contentScriptType="application/ecmascript" contentStyleType="text/css" height="706px" preserveAspectRatio="none" style="width:3240px;height:706px;background:#FFFFFF;" version="1.1" viewBox="0 0 3240 706" width="3240px" zoomAndPan="magnify"><defs><filter height="300%" id="f1f00xhm748bgv" width="300%" x="-1" y="-1"><feGaussianBlur result="blurOut" stdDeviation="2.0"/><feColorMatrix in="blurOut" result="blurOut2" type="matrix" values="0 0 0 0 0 0 0 0 0 0 0 0 0 0 0 0 0 0 .4 0"/><feOffset dx="4.0" dy="4.0" in="blurOut2" result="blurOut3"/><feBlend in="SourceGraphic" in2="blurOut3" mode="normal"/></filter></defs><g><!--MD5=[3c6a81417b120f50f6c75bb17b96093a]
class BoolExpr--><rect codeLine="18" fill="#FEFECE" filter="url(#f1f00xhm748bgv)" height="48" id="BoolExpr" style="stroke:#A80036;stroke-width:1.5;" width="82" x="866.5" y="230"/><ellipse cx="881.5" cy="246" fill="#B4A7E5" rx="11" ry="11" style="stroke:#A80036;stroke-width:1.0;"/><path d="M882.5,243 L882.5,249 L884.5,249 L884.9844,249 L885.5,249.625 L885.5,250 L885.5,250.375 L884.9844,251 L884.5,251 L878.5,251 L878.0156,251 L877.5,250.375 L877.5,250 L877.5,249.625 L878.0156,249 L878.5,249 L880.5,249 L880.5,243 L878.5,243 L878.0156,243 L877.5,242.375 L877.5,242 L877.5,241.625 L878.0156,241 L878.5,241 L884.5,241 L884.9844,241 L885.5,241.625 L885.5,242 L885.5,242.375 L884.9844,243 L884.5,243 L882.5,243 Z " fill="#000000"/><text fill="#000000" font-family="sans-serif" font-size="12" font-style="italic" lengthAdjust="spacing" textLength="50" x="895.5" y="250.9102">BoolExpr</text><line style="stroke:#A80036;stroke-width:1.5;" x1="867.5" x2="947.5" y1="262" y2="262"/><line style="stroke:#A80036;stroke-width:1.5;" x1="867.5" x2="947.5" y1="270" y2="270"/><!--MD5=[c3f3df465dee32a130513aae527b41a4]
class ConstantBoolExpr--><rect codeLine="19" fill="#FEFECE" filter="url(#f1f00xhm748bgv)" height="61.8359" id="ConstantBoolExpr" style="stroke:#A80036;stroke-width:1.5;" width="131" x="540" y="345"/><ellipse cx="555" cy="361" fill="#ADD1B2" rx="11" ry="11" style="stroke:#A80036;stroke-width:1.0;"/><path d="M557,357.5 Q557.2031,357 557.4375,356.75 Q557.6719,356.5 557.9375,356.5 Q558.4063,356.5 558.7031,356.7813 Q559,357.0625 559,357.7188 L559,359.2813 Q559,359.9375 558.7188,360.2188 Q558.4375,360.5 558,360.5 Q557.6094,360.5 557.3594,360.3281 Q557.1094,360.1563 557,359.7031 Q556.9531,359.3906 556.7813,359.2188 Q556.4688,358.8906 555.9063,358.7031 Q555.3438,358.5 554.7813,358.5 Q554.0781,358.5 553.4844,358.7813 Q552.9063,359.0625 552.4531,359.6875 Q552,360.3125 552,361.1719 L552,362.0938 Q552,363.125 552.8438,363.8125 Q553.6875,364.5 555.1875,364.5 Q556.0781,364.5 556.7031,364.2969 Q557.0625,364.1875 557.4688,363.8281 Q557.7344,363.625 557.875,363.5625 Q558.0156,363.5 558.1875,363.5 Q558.5156,363.5 558.75,363.7656 Q559,364.0156 559,364.375 Q559,364.7188 558.6563,365.125 Q558.1563,365.7188 557.3594,366.0469 Q556.3125,366.5 555.0313,366.5 Q553.5313,366.5 552.3281,365.9063 Q551.3594,365.4375 550.6719,364.4219 Q550,363.4063 550,362.2031 L550,361.1094 Q550,359.8594 550.5938,358.7656 Q551.2031,357.6719 552.25,357.0938 Q553.3125,356.5 554.5,356.5 Q555.2188,356.5 555.8438,356.75 Q556.4688,357 557,357.5 Z " fill="#000000"/><text fill="#000000" font-family="sans-serif" font-size="12" lengthAdjust="spacing" textLength="99" x="569" y="365.9102">ConstantBoolExpr</text><line style="stroke:#A80036;stroke-width:1.5;" x1="541" x2="670" y1="377" y2="377"/><rect fill="none" height="6" style="stroke:#C82930;stroke-width:1.0;" width="6" x="548" y="385"/><text fill="#000000" font-family="sans-serif" font-size="11" lengthAdjust="spacing" textLength="67" x="560" y="392.4189">boolean value</text><line style="stroke:#A80036;stroke-width:1.5;" x1="541" x2="670" y1="398.8359" y2="398.8359"/><!--MD5=[b743dde63bdece5961704b5cea69cdc2]
class BiBoolExpr--><rect codeLine="25" fill="#FEFECE" filter="url(#f1f00xhm748bgv)" height="48" id="BiBoolExpr" style="stroke:#A80036;stroke-width:1.5;" width="93" x="1014" y="352"/><ellipse cx="1029" cy="368" fill="#B4A7E5" rx="11" ry="11" style="stroke:#A80036;stroke-width:1.0;"/><path d="M1030,365 L1030,371 L1032,371 L1032.4844,371 L1033,371.625 L1033,372 L1033,372.375 L1032.4844,373 L1032,373 L1026,373 L1025.5156,373 L1025,372.375 L1025,372 L1025,371.625 L1025.5156,371 L1026,371 L1028,371 L1028,365 L1026,365 L1025.5156,365 L1025,364.375 L1025,364 L1025,363.625 L1025.5156,363 L1026,363 L1032,363 L1032.4844,363 L1033,363.625 L1033,364 L1033,364.375 L1032.4844,365 L1032,365 L1030,365 Z " fill="#000000"/><text fill="#000000" font-family="sans-serif" font-size="12" font-style="italic" lengthAdjust="spacing" textLength="61" x="1043" y="372.9102">BiBoolExpr</text><line style="stroke:#A80036;stroke-width:1.5;" x1="1015" x2="1106" y1="384" y2="384"/><line style="stroke:#A80036;stroke-width:1.5;" x1="1015" x2="1106" y1="392" y2="392"/><!--MD5=[c4af0c234637833db15232d1b8c94378]
class AndExpr--><rect codeLine="26" fill="#FEFECE" filter="url(#f1f00xhm748bgv)" height="75.6719" id="AndExpr" style="stroke:#A80036;stroke-width:1.5;" width="93" x="950" y="467"/><ellipse cx="972.2" cy="483" fill="#ADD1B2" rx="11" ry="11" style="stroke:#A80036;stroke-width:1.0;"/><path d="M974.2,479.5 Q974.4031,479 974.6375,478.75 Q974.8719,478.5 975.1375,478.5 Q975.6063,478.5 975.9031,478.7813 Q976.2,479.0625 976.2,479.7188 L976.2,481.2813 Q976.2,481.9375 975.9188,482.2188 Q975.6375,482.5 975.2,482.5 Q974.8094,482.5 974.5594,482.3281 Q974.3094,482.1563 974.2,481.7031 Q974.1531,481.3906 973.9813,481.2188 Q973.6688,480.8906 973.1063,480.7031 Q972.5438,480.5 971.9813,480.5 Q971.2781,480.5 970.6844,480.7813 Q970.1063,481.0625 969.6531,481.6875 Q969.2,482.3125 969.2,483.1719 L969.2,484.0938 Q969.2,485.125 970.0438,485.8125 Q970.8875,486.5 972.3875,486.5 Q973.2781,486.5 973.9031,486.2969 Q974.2625,486.1875 974.6688,485.8281 Q974.9344,485.625 975.075,485.5625 Q975.2156,485.5 975.3875,485.5 Q975.7156,485.5 975.95,485.7656 Q976.2,486.0156 976.2,486.375 Q976.2,486.7188 975.8563,487.125 Q975.3563,487.7188 974.5594,488.0469 Q973.5125,488.5 972.2313,488.5 Q970.7313,488.5 969.5281,487.9063 Q968.5594,487.4375 967.8719,486.4219 Q967.2,485.4063 967.2,484.2031 L967.2,483.1094 Q967.2,481.8594 967.7938,480.7656 Q968.4031,479.6719 969.45,479.0938 Q970.5125,478.5 971.7,478.5 Q972.4188,478.5 973.0438,478.75 Q973.6688,479 974.2,479.5 Z " fill="#000000"/><text fill="#000000" font-family="sans-serif" font-size="12" lengthAdjust="spacing" textLength="45" x="987.8" y="487.9102">AndExpr</text><line style="stroke:#A80036;stroke-width:1.5;" x1="951" x2="1042" y1="499" y2="499"/><rect fill="none" height="6" style="stroke:#C82930;stroke-width:1.0;" width="6" x="958" y="507"/><text fill="#000000" font-family="sans-serif" font-size="11" lengthAdjust="spacing" textLength="61" x="970" y="514.4189">BoolExpr left</text><rect fill="none" height="6" style="stroke:#C82930;stroke-width:1.0;" width="6" x="958" y="520.8359"/><text fill="#000000" font-family="sans-serif" font-size="11" lengthAdjust="spacing" textLength="67" x="970" y="528.2549">BoolExpr right</text><line style="stroke:#A80036;stroke-width:1.5;" x1="951" x2="1042" y1="534.6719" y2="534.6719"/><!--MD5=[7c8085cfdb138311e83420237fc9bf33]
class OrExpr--><rect codeLine="30" fill="#FEFECE" filter="url(#f1f00xhm748bgv)" height="75.6719" id="OrExpr" style="stroke:#A80036;stroke-width:1.5;" width="93" x="1078" y="467"/><ellipse cx="1103.8" cy="483" fill="#ADD1B2" rx="11" ry="11" style="stroke:#A80036;stroke-width:1.0;"/><path d="M1105.8,479.5 Q1106.0031,479 1106.2375,478.75 Q1106.4719,478.5 1106.7375,478.5 Q1107.2063,478.5 1107.5031,478.7813 Q1107.8,479.0625 1107.8,479.7188 L1107.8,481.2813 Q1107.8,481.9375 1107.5188,482.2188 Q1107.2375,482.5 1106.8,482.5 Q1106.4094,482.5 1106.1594,482.3281 Q1105.9094,482.1563 1105.8,481.7031 Q1105.7531,481.3906 1105.5813,481.2188 Q1105.2688,480.8906 1104.7063,480.7031 Q1104.1438,480.5 1103.5813,480.5 Q1102.8781,480.5 1102.2844,480.7813 Q1101.7063,481.0625 1101.2531,481.6875 Q1100.8,482.3125 1100.8,483.1719 L1100.8,484.0938 Q1100.8,485.125 1101.6438,485.8125 Q1102.4875,486.5 1103.9875,486.5 Q1104.8781,486.5 1105.5031,486.2969 Q1105.8625,486.1875 1106.2688,485.8281 Q1106.5344,485.625 1106.675,485.5625 Q1106.8156,485.5 1106.9875,485.5 Q1107.3156,485.5 1107.55,485.7656 Q1107.8,486.0156 1107.8,486.375 Q1107.8,486.7188 1107.4563,487.125 Q1106.9563,487.7188 1106.1594,488.0469 Q1105.1125,488.5 1103.8313,488.5 Q1102.3313,488.5 1101.1281,487.9063 Q1100.1594,487.4375 1099.4719,486.4219 Q1098.8,485.4063 1098.8,484.2031 L1098.8,483.1094 Q1098.8,481.8594 1099.3938,480.7656 Q1100.0031,479.6719 1101.05,479.0938 Q1102.1125,478.5 1103.3,478.5 Q1104.0188,478.5 1104.6438,478.75 Q1105.2688,479 1105.8,479.5 Z " fill="#000000"/><text fill="#000000" font-family="sans-serif" font-size="12" lengthAdjust="spacing" textLength="37" x="1120.2" y="487.9102">OrExpr</text><line style="stroke:#A80036;stroke-width:1.5;" x1="1079" x2="1170" y1="499" y2="499"/><rect fill="none" height="6" style="stroke:#C82930;stroke-width:1.0;" width="6" x="1086" y="507"/><text fill="#000000" font-family="sans-serif" font-size="11" lengthAdjust="spacing" textLength="61" x="1098" y="514.4189">BoolExpr left</text><rect fill="none" height="6" style="stroke:#C82930;stroke-width:1.0;" width="6" x="1086" y="520.8359"/><text fill="#000000" font-family="sans-serif" font-size="11" lengthAdjust="spacing" textLength="67" x="1098" y="528.2549">BoolExpr right</text><line style="stroke:#A80036;stroke-width:1.5;" x1="1079" x2="1170" y1="534.6719" y2="534.6719"/><!--MD5=[41dd90a5f7f178e08ee394f4d82c92c6]
class ReBoolExpr--><rect codeLine="39" fill="#FEFECE" filter="url(#f1f00xhm748bgv)" height="48" id="ReBoolExpr" style="stroke:#A80036;stroke-width:1.5;" width="98" x="706.5" y="352"/><ellipse cx="721.5" cy="368" fill="#B4A7E5" rx="11" ry="11" style="stroke:#A80036;stroke-width:1.0;"/><path d="M722.5,365 L722.5,371 L724.5,371 L724.9844,371 L725.5,371.625 L725.5,372 L725.5,372.375 L724.9844,373 L724.5,373 L718.5,373 L718.0156,373 L717.5,372.375 L717.5,372 L717.5,371.625 L718.0156,371 L718.5,371 L720.5,371 L720.5,365 L718.5,365 L718.0156,365 L717.5,364.375 L717.5,364 L717.5,363.625 L718.0156,363 L718.5,363 L724.5,363 L724.9844,363 L725.5,363.625 L725.5,364 L725.5,364.375 L724.9844,365 L724.5,365 L722.5,365 Z " fill="#000000"/><text fill="#000000" font-family="sans-serif" font-size="12" font-style="italic" lengthAdjust="spacing" textLength="66" x="735.5" y="372.9102">ReBoolExpr</text><line style="stroke:#A80036;stroke-width:1.5;" x1="707.5" x2="803.5" y1="384" y2="384"/><line style="stroke:#A80036;stroke-width:1.5;" x1="707.5" x2="803.5" y1="392" y2="392"/><!--MD5=[91451156796c608a83fc88368106f593]
class EqExpr--><rect codeLine="40" fill="#FEFECE" filter="url(#f1f00xhm748bgv)" height="75.6719" id="EqExpr" style="stroke:#A80036;stroke-width:1.5;" width="83" x="714" y="467"/><ellipse cx="734.4" cy="483" fill="#ADD1B2" rx="11" ry="11" style="stroke:#A80036;stroke-width:1.0;"/><path d="M736.4,479.5 Q736.6031,479 736.8375,478.75 Q737.0719,478.5 737.3375,478.5 Q737.8063,478.5 738.1031,478.7813 Q738.4,479.0625 738.4,479.7188 L738.4,481.2813 Q738.4,481.9375 738.1188,482.2188 Q737.8375,482.5 737.4,482.5 Q737.0094,482.5 736.7594,482.3281 Q736.5094,482.1563 736.4,481.7031 Q736.3531,481.3906 736.1813,481.2188 Q735.8688,480.8906 735.3063,480.7031 Q734.7438,480.5 734.1813,480.5 Q733.4781,480.5 732.8844,480.7813 Q732.3063,481.0625 731.8531,481.6875 Q731.4,482.3125 731.4,483.1719 L731.4,484.0938 Q731.4,485.125 732.2438,485.8125 Q733.0875,486.5 734.5875,486.5 Q735.4781,486.5 736.1031,486.2969 Q736.4625,486.1875 736.8688,485.8281 Q737.1344,485.625 737.275,485.5625 Q737.4156,485.5 737.5875,485.5 Q737.9156,485.5 738.15,485.7656 Q738.4,486.0156 738.4,486.375 Q738.4,486.7188 738.0563,487.125 Q737.5563,487.7188 736.7594,488.0469 Q735.7125,488.5 734.4313,488.5 Q732.9313,488.5 731.7281,487.9063 Q730.7594,487.4375 730.0719,486.4219 Q729.4,485.4063 729.4,484.2031 L729.4,483.1094 Q729.4,481.8594 729.9938,480.7656 Q730.6031,479.6719 731.65,479.0938 Q732.7125,478.5 733.9,478.5 Q734.6188,478.5 735.2438,478.75 Q735.8688,479 736.4,479.5 Z " fill="#000000"/><text fill="#000000" font-family="sans-serif" font-size="12" lengthAdjust="spacing" textLength="39" x="749.6" y="487.9102">EqExpr</text><line style="stroke:#A80036;stroke-width:1.5;" x1="715" x2="796" y1="499" y2="499"/><rect fill="none" height="6" style="stroke:#C82930;stroke-width:1.0;" width="6" x="722" y="507"/><text fill="#000000" font-family="sans-serif" font-size="11" lengthAdjust="spacing" textLength="51" x="734" y="514.4189">IntExpr left</text><rect fill="none" height="6" style="stroke:#C82930;stroke-width:1.0;" width="6" x="722" y="520.8359"/><text fill="#000000" font-family="sans-serif" font-size="11" lengthAdjust="spacing" textLength="57" x="734" y="528.2549">IntExpr right</text><line style="stroke:#A80036;stroke-width:1.5;" x1="715" x2="796" y1="534.6719" y2="534.6719"/><!--MD5=[6c8ba827d9b027741597d9d03ca76010]
class GeExpr--><rect codeLine="44" fill="#FEFECE" filter="url(#f1f00xhm748bgv)" height="75.6719" id="GeExpr" style="stroke:#A80036;stroke-width:1.5;" width="83" x="832" y="467"/><ellipse cx="851.95" cy="483" fill="#ADD1B2" rx="11" ry="11" style="stroke:#A80036;stroke-width:1.0;"/><path d="M853.95,479.5 Q854.1531,479 854.3875,478.75 Q854.6219,478.5 854.8875,478.5 Q855.3563,478.5 855.6531,478.7813 Q855.95,479.0625 855.95,479.7188 L855.95,481.2813 Q855.95,481.9375 855.6688,482.2188 Q855.3875,482.5 854.95,482.5 Q854.5594,482.5 854.3094,482.3281 Q854.0594,482.1563 853.95,481.7031 Q853.9031,481.3906 853.7313,481.2188 Q853.4188,480.8906 852.8563,480.7031 Q852.2938,480.5 851.7313,480.5 Q851.0281,480.5 850.4344,480.7813 Q849.8563,481.0625 849.4031,481.6875 Q848.95,482.3125 848.95,483.1719 L848.95,484.0938 Q848.95,485.125 849.7938,485.8125 Q850.6375,486.5 852.1375,486.5 Q853.0281,486.5 853.6531,486.2969 Q854.0125,486.1875 854.4188,485.8281 Q854.6844,485.625 854.825,485.5625 Q854.9656,485.5 855.1375,485.5 Q855.4656,485.5 855.7,485.7656 Q855.95,486.0156 855.95,486.375 Q855.95,486.7188 855.6063,487.125 Q855.1063,487.7188 854.3094,488.0469 Q853.2625,488.5 851.9813,488.5 Q850.4813,488.5 849.2781,487.9063 Q848.3094,487.4375 847.6219,486.4219 Q846.95,485.4063 846.95,484.2031 L846.95,483.1094 Q846.95,481.8594 847.5438,480.7656 Q848.1531,479.6719 849.2,479.0938 Q850.2625,478.5 851.45,478.5 Q852.1688,478.5 852.7938,478.75 Q853.4188,479 853.95,479.5 Z " fill="#000000"/><text fill="#000000" font-family="sans-serif" font-size="12" lengthAdjust="spacing" textLength="40" x="867.05" y="487.9102">GeExpr</text><line style="stroke:#A80036;stroke-width:1.5;" x1="833" x2="914" y1="499" y2="499"/><rect fill="none" height="6" style="stroke:#C82930;stroke-width:1.0;" width="6" x="840" y="507"/><text fill="#000000" font-family="sans-serif" font-size="11" lengthAdjust="spacing" textLength="51" x="852" y="514.4189">IntExpr left</text><rect fill="none" height="6" style="stroke:#C82930;stroke-width:1.0;" width="6" x="840" y="520.8359"/><text fill="#000000" font-family="sans-serif" font-size="11" lengthAdjust="spacing" textLength="57" x="852" y="528.2549">IntExpr right</text><line style="stroke:#A80036;stroke-width:1.5;" x1="833" x2="914" y1="534.6719" y2="534.6719"/><!--MD5=[70c05bbafa3c052951efe8311673d17e]
class GtExpr--><rect codeLine="48" fill="#FEFECE" filter="url(#f1f00xhm748bgv)" height="75.6719" id="GtExpr" style="stroke:#A80036;stroke-width:1.5;" width="83" x="242" y="467"/><ellipse cx="263.75" cy="483" fill="#ADD1B2" rx="11" ry="11" style="stroke:#A80036;stroke-width:1.0;"/><path d="M265.75,479.5 Q265.9531,479 266.1875,478.75 Q266.4219,478.5 266.6875,478.5 Q267.1563,478.5 267.4531,478.7813 Q267.75,479.0625 267.75,479.7188 L267.75,481.2813 Q267.75,481.9375 267.4688,482.2188 Q267.1875,482.5 266.75,482.5 Q266.3594,482.5 266.1094,482.3281 Q265.8594,482.1563 265.75,481.7031 Q265.7031,481.3906 265.5313,481.2188 Q265.2188,480.8906 264.6563,480.7031 Q264.0938,480.5 263.5313,480.5 Q262.8281,480.5 262.2344,480.7813 Q261.6563,481.0625 261.2031,481.6875 Q260.75,482.3125 260.75,483.1719 L260.75,484.0938 Q260.75,485.125 261.5938,485.8125 Q262.4375,486.5 263.9375,486.5 Q264.8281,486.5 265.4531,486.2969 Q265.8125,486.1875 266.2188,485.8281 Q266.4844,485.625 266.625,485.5625 Q266.7656,485.5 266.9375,485.5 Q267.2656,485.5 267.5,485.7656 Q267.75,486.0156 267.75,486.375 Q267.75,486.7188 267.4063,487.125 Q266.9063,487.7188 266.1094,488.0469 Q265.0625,488.5 263.7813,488.5 Q262.2813,488.5 261.0781,487.9063 Q260.1094,487.4375 259.4219,486.4219 Q258.75,485.4063 258.75,484.2031 L258.75,483.1094 Q258.75,481.8594 259.3438,480.7656 Q259.9531,479.6719 261,479.0938 Q262.0625,478.5 263.25,478.5 Q263.9688,478.5 264.5938,478.75 Q265.2188,479 265.75,479.5 Z " fill="#000000"/><text fill="#000000" font-family="sans-serif" font-size="12" lengthAdjust="spacing" textLength="36" x="279.25" y="487.9102">GtExpr</text><line style="stroke:#A80036;stroke-width:1.5;" x1="243" x2="324" y1="499" y2="499"/><rect fill="none" height="6" style="stroke:#C82930;stroke-width:1.0;" width="6" x="250" y="507"/><text fill="#000000" font-family="sans-serif" font-size="11" lengthAdjust="spacing" textLength="51" x="262" y="514.4189">IntExpr left</text><rect fill="none" height="6" style="stroke:#C82930;stroke-width:1.0;" width="6" x="250" y="520.8359"/><text fill="#000000" font-family="sans-serif" font-size="11" lengthAdjust="spacing" textLength="57" x="262" y="528.2549">IntExpr right</text><line style="stroke:#A80036;stroke-width:1.5;" x1="243" x2="324" y1="534.6719" y2="534.6719"/><!--MD5=[5c2d76047b19b2067c1403caab36842c]
class LeExpr--><rect codeLine="52" fill="#FEFECE" filter="url(#f1f00xhm748bgv)" height="75.6719" id="LeExpr" style="stroke:#A80036;stroke-width:1.5;" width="83" x="360" y="467"/><ellipse cx="380.85" cy="483" fill="#ADD1B2" rx="11" ry="11" style="stroke:#A80036;stroke-width:1.0;"/><path d="M382.85,479.5 Q383.0531,479 383.2875,478.75 Q383.5219,478.5 383.7875,478.5 Q384.2563,478.5 384.5531,478.7813 Q384.85,479.0625 384.85,479.7188 L384.85,481.2813 Q384.85,481.9375 384.5688,482.2188 Q384.2875,482.5 383.85,482.5 Q383.4594,482.5 383.2094,482.3281 Q382.9594,482.1563 382.85,481.7031 Q382.8031,481.3906 382.6313,481.2188 Q382.3188,480.8906 381.7563,480.7031 Q381.1938,480.5 380.6313,480.5 Q379.9281,480.5 379.3344,480.7813 Q378.7563,481.0625 378.3031,481.6875 Q377.85,482.3125 377.85,483.1719 L377.85,484.0938 Q377.85,485.125 378.6938,485.8125 Q379.5375,486.5 381.0375,486.5 Q381.9281,486.5 382.5531,486.2969 Q382.9125,486.1875 383.3188,485.8281 Q383.5844,485.625 383.725,485.5625 Q383.8656,485.5 384.0375,485.5 Q384.3656,485.5 384.6,485.7656 Q384.85,486.0156 384.85,486.375 Q384.85,486.7188 384.5063,487.125 Q384.0063,487.7188 383.2094,488.0469 Q382.1625,488.5 380.8813,488.5 Q379.3813,488.5 378.1781,487.9063 Q377.2094,487.4375 376.5219,486.4219 Q375.85,485.4063 375.85,484.2031 L375.85,483.1094 Q375.85,481.8594 376.4438,480.7656 Q377.0531,479.6719 378.1,479.0938 Q379.1625,478.5 380.35,478.5 Q381.0688,478.5 381.6938,478.75 Q382.3188,479 382.85,479.5 Z " fill="#000000"/><text fill="#000000" font-family="sans-serif" font-size="12" lengthAdjust="spacing" textLength="38" x="396.15" y="487.9102">LeExpr</text><line style="stroke:#A80036;stroke-width:1.5;" x1="361" x2="442" y1="499" y2="499"/><rect fill="none" height="6" style="stroke:#C82930;stroke-width:1.0;" width="6" x="368" y="507"/><text fill="#000000" font-family="sans-serif" font-size="11" lengthAdjust="spacing" textLength="51" x="380" y="514.4189">IntExpr left</text><rect fill="none" height="6" style="stroke:#C82930;stroke-width:1.0;" width="6" x="368" y="520.8359"/><text fill="#000000" font-family="sans-serif" font-size="11" lengthAdjust="spacing" textLength="57" x="380" y="528.2549">IntExpr right</text><line style="stroke:#A80036;stroke-width:1.5;" x1="361" x2="442" y1="534.6719" y2="534.6719"/><!--MD5=[cb95a152193ff4d086afc8c465aea1f6]
class LtExpr--><rect codeLine="56" fill="#FEFECE" filter="url(#f1f00xhm748bgv)" height="75.6719" id="LtExpr" style="stroke:#A80036;stroke-width:1.5;" width="83" x="478" y="467"/><ellipse cx="500.65" cy="483" fill="#ADD1B2" rx="11" ry="11" style="stroke:#A80036;stroke-width:1.0;"/><path d="M502.65,479.5 Q502.8531,479 503.0875,478.75 Q503.3219,478.5 503.5875,478.5 Q504.0563,478.5 504.3531,478.7813 Q504.65,479.0625 504.65,479.7188 L504.65,481.2813 Q504.65,481.9375 504.3688,482.2188 Q504.0875,482.5 503.65,482.5 Q503.2594,482.5 503.0094,482.3281 Q502.7594,482.1563 502.65,481.7031 Q502.6031,481.3906 502.4313,481.2188 Q502.1188,480.8906 501.5563,480.7031 Q500.9938,480.5 500.4313,480.5 Q499.7281,480.5 499.1344,480.7813 Q498.5563,481.0625 498.1031,481.6875 Q497.65,482.3125 497.65,483.1719 L497.65,484.0938 Q497.65,485.125 498.4938,485.8125 Q499.3375,486.5 500.8375,486.5 Q501.7281,486.5 502.3531,486.2969 Q502.7125,486.1875 503.1188,485.8281 Q503.3844,485.625 503.525,485.5625 Q503.6656,485.5 503.8375,485.5 Q504.1656,485.5 504.4,485.7656 Q504.65,486.0156 504.65,486.375 Q504.65,486.7188 504.3063,487.125 Q503.8063,487.7188 503.0094,488.0469 Q501.9625,488.5 500.6813,488.5 Q499.1813,488.5 497.9781,487.9063 Q497.0094,487.4375 496.3219,486.4219 Q495.65,485.4063 495.65,484.2031 L495.65,483.1094 Q495.65,481.8594 496.2438,480.7656 Q496.8531,479.6719 497.9,479.0938 Q498.9625,478.5 500.15,478.5 Q500.8688,478.5 501.4938,478.75 Q502.1188,479 502.65,479.5 Z " fill="#000000"/><text fill="#000000" font-family="sans-serif" font-size="12" lengthAdjust="spacing" textLength="34" x="516.35" y="487.9102">LtExpr</text><line style="stroke:#A80036;stroke-width:1.5;" x1="479" x2="560" y1="499" y2="499"/><rect fill="none" height="6" style="stroke:#C82930;stroke-width:1.0;" width="6" x="486" y="507"/><text fill="#000000" font-family="sans-serif" font-size="11" lengthAdjust="spacing" textLength="51" x="498" y="514.4189">IntExpr left</text><rect fill="none" height="6" style="stroke:#C82930;stroke-width:1.0;" width="6" x="486" y="520.8359"/><text fill="#000000" font-family="sans-serif" font-size="11" lengthAdjust="spacing" textLength="57" x="498" y="528.2549">IntExpr right</text><line style="stroke:#A80036;stroke-width:1.5;" x1="479" x2="560" y1="534.6719" y2="534.6719"/><!--MD5=[6fd59c348175650db51cabaf37c496c1]
class NeExpr--><rect codeLine="60" fill="#FEFECE" filter="url(#f1f00xhm748bgv)" height="75.6719" id="NeExpr" style="stroke:#A80036;stroke-width:1.5;" width="83" x="596" y="467"/><ellipse cx="615.95" cy="483" fill="#ADD1B2" rx="11" ry="11" style="stroke:#A80036;stroke-width:1.0;"/><path d="M617.95,479.5 Q618.1531,479 618.3875,478.75 Q618.6219,478.5 618.8875,478.5 Q619.3563,478.5 619.6531,478.7813 Q619.95,479.0625 619.95,479.7188 L619.95,481.2813 Q619.95,481.9375 619.6688,482.2188 Q619.3875,482.5 618.95,482.5 Q618.5594,482.5 618.3094,482.3281 Q618.0594,482.1563 617.95,481.7031 Q617.9031,481.3906 617.7313,481.2188 Q617.4188,480.8906 616.8563,480.7031 Q616.2938,480.5 615.7313,480.5 Q615.0281,480.5 614.4344,480.7813 Q613.8563,481.0625 613.4031,481.6875 Q612.95,482.3125 612.95,483.1719 L612.95,484.0938 Q612.95,485.125 613.7938,485.8125 Q614.6375,486.5 616.1375,486.5 Q617.0281,486.5 617.6531,486.2969 Q618.0125,486.1875 618.4188,485.8281 Q618.6844,485.625 618.825,485.5625 Q618.9656,485.5 619.1375,485.5 Q619.4656,485.5 619.7,485.7656 Q619.95,486.0156 619.95,486.375 Q619.95,486.7188 619.6063,487.125 Q619.1063,487.7188 618.3094,488.0469 Q617.2625,488.5 615.9813,488.5 Q614.4813,488.5 613.2781,487.9063 Q612.3094,487.4375 611.6219,486.4219 Q610.95,485.4063 610.95,484.2031 L610.95,483.1094 Q610.95,481.8594 611.5438,480.7656 Q612.1531,479.6719 613.2,479.0938 Q614.2625,478.5 615.45,478.5 Q616.1688,478.5 616.7938,478.75 Q617.4188,479 617.95,479.5 Z " fill="#000000"/><text fill="#000000" font-family="sans-serif" font-size="12" lengthAdjust="spacing" textLength="40" x="631.05" y="487.9102">NeExpr</text><line style="stroke:#A80036;stroke-width:1.5;" x1="597" x2="678" y1="499" y2="499"/><rect fill="none" height="6" style="stroke:#C82930;stroke-width:1.0;" width="6" x="604" y="507"/><text fill="#000000" font-family="sans-serif" font-size="11" lengthAdjust="spacing" textLength="51" x="616" y="514.4189">IntExpr left</text><rect fill="none" height="6" style="stroke:#C82930;stroke-width:1.0;" width="6" x="604" y="520.8359"/><text fill="#000000" font-family="sans-serif" font-size="11" lengthAdjust="spacing" textLength="57" x="616" y="528.2549">IntExpr right</text><line style="stroke:#A80036;stroke-width:1.5;" x1="597" x2="678" y1="534.6719" y2="534.6719"/><!--MD5=[87860323411f40c40661948f20896abb]
class UnBoolExpr--><rect codeLine="73" fill="#FEFECE" filter="url(#f1f00xhm748bgv)" height="48" id="UnBoolExpr" style="stroke:#A80036;stroke-width:1.5;" width="98" x="112.5" y="352"/><ellipse cx="127.5" cy="368" fill="#B4A7E5" rx="11" ry="11" style="stroke:#A80036;stroke-width:1.0;"/><path d="M128.5,365 L128.5,371 L130.5,371 L130.9844,371 L131.5,371.625 L131.5,372 L131.5,372.375 L130.9844,373 L130.5,373 L124.5,373 L124.0156,373 L123.5,372.375 L123.5,372 L123.5,371.625 L124.0156,371 L124.5,371 L126.5,371 L126.5,365 L124.5,365 L124.0156,365 L123.5,364.375 L123.5,364 L123.5,363.625 L124.0156,363 L124.5,363 L130.5,363 L130.9844,363 L131.5,363.625 L131.5,364 L131.5,364.375 L130.9844,365 L130.5,365 L128.5,365 Z " fill="#000000"/><text fill="#000000" font-family="sans-serif" font-size="12" font-style="italic" lengthAdjust="spacing" textLength="66" x="141.5" y="372.9102">UnBoolExpr</text><line style="stroke:#A80036;stroke-width:1.5;" x1="113.5" x2="209.5" y1="384" y2="384"/><line style="stroke:#A80036;stroke-width:1.5;" x1="113.5" x2="209.5" y1="392" y2="392"/><!--MD5=[3996d5046a8a8d45ee954ce9479776ab]
class NotExpr--><rect codeLine="74" fill="#FEFECE" filter="url(#f1f00xhm748bgv)" height="61.8359" id="NotExpr" style="stroke:#A80036;stroke-width:1.5;" width="94" x="112.5" y="474"/><ellipse cx="136.05" cy="490" fill="#ADD1B2" rx="11" ry="11" style="stroke:#A80036;stroke-width:1.0;"/><path d="M138.05,486.5 Q138.2531,486 138.4875,485.75 Q138.7219,485.5 138.9875,485.5 Q139.4563,485.5 139.7531,485.7813 Q140.05,486.0625 140.05,486.7188 L140.05,488.2813 Q140.05,488.9375 139.7688,489.2188 Q139.4875,489.5 139.05,489.5 Q138.6594,489.5 138.4094,489.3281 Q138.1594,489.1563 138.05,488.7031 Q138.0031,488.3906 137.8313,488.2188 Q137.5188,487.8906 136.9563,487.7031 Q136.3938,487.5 135.8313,487.5 Q135.1281,487.5 134.5344,487.7813 Q133.9563,488.0625 133.5031,488.6875 Q133.05,489.3125 133.05,490.1719 L133.05,491.0938 Q133.05,492.125 133.8938,492.8125 Q134.7375,493.5 136.2375,493.5 Q137.1281,493.5 137.7531,493.2969 Q138.1125,493.1875 138.5188,492.8281 Q138.7844,492.625 138.925,492.5625 Q139.0656,492.5 139.2375,492.5 Q139.5656,492.5 139.8,492.7656 Q140.05,493.0156 140.05,493.375 Q140.05,493.7188 139.7063,494.125 Q139.2063,494.7188 138.4094,495.0469 Q137.3625,495.5 136.0813,495.5 Q134.5813,495.5 133.3781,494.9063 Q132.4094,494.4375 131.7219,493.4219 Q131.05,492.4063 131.05,491.2031 L131.05,490.1094 Q131.05,488.8594 131.6438,487.7656 Q132.2531,486.6719 133.3,486.0938 Q134.3625,485.5 135.55,485.5 Q136.2688,485.5 136.8938,485.75 Q137.5188,486 138.05,486.5 Z " fill="#000000"/><text fill="#000000" font-family="sans-serif" font-size="12" lengthAdjust="spacing" textLength="43" x="151.95" y="494.9102">NotExpr</text><line style="stroke:#A80036;stroke-width:1.5;" x1="113.5" x2="205.5" y1="506" y2="506"/><rect fill="none" height="6" style="stroke:#C82930;stroke-width:1.0;" width="6" x="120.5" y="514"/><text fill="#000000" font-family="sans-serif" font-size="11" lengthAdjust="spacing" textLength="68" x="132.5" y="521.4189">BoolExpr expr</text><line style="stroke:#A80036;stroke-width:1.5;" x1="113.5" x2="205.5" y1="527.8359" y2="527.8359"/><!--MD5=[3402dbfddca502703253561a2d10db22]
class BoolVar--><rect codeLine="81" fill="#FEFECE" filter="url(#f1f00xhm748bgv)" height="48" id="BoolVar" style="stroke:#A80036;stroke-width:1.5;" width="76" x="1400.5" y="352"/><ellipse cx="1415.5" cy="368" fill="#B4A7E5" rx="11" ry="11" style="stroke:#A80036;stroke-width:1.0;"/><path d="M1416.5,365 L1416.5,371 L1418.5,371 L1418.9844,371 L1419.5,371.625 L1419.5,372 L1419.5,372.375 L1418.9844,373 L1418.5,373 L1412.5,373 L1412.0156,373 L1411.5,372.375 L1411.5,372 L1411.5,371.625 L1412.0156,371 L1412.5,371 L1414.5,371 L1414.5,365 L1412.5,365 L1412.0156,365 L1411.5,364.375 L1411.5,364 L1411.5,363.625 L1412.0156,363 L1412.5,363 L1418.5,363 L1418.9844,363 L1419.5,363.625 L1419.5,364 L1419.5,364.375 L1418.9844,365 L1418.5,365 L1416.5,365 Z " fill="#000000"/><text fill="#000000" font-family="sans-serif" font-size="12" font-style="italic" lengthAdjust="spacing" textLength="44" x="1429.5" y="372.9102">BoolVar</text><line style="stroke:#A80036;stroke-width:1.5;" x1="1401.5" x2="1475.5" y1="384" y2="384"/><line style="stroke:#A80036;stroke-width:1.5;" x1="1401.5" x2="1475.5" y1="392" y2="392"/><!--MD5=[621b3041932241064058752e28968d2d]
class ConstantBoolVar--><rect codeLine="82" fill="#FEFECE" filter="url(#f1f00xhm748bgv)" height="75.6719" id="ConstantBoolVar" style="stroke:#A80036;stroke-width:1.5;" width="125" x="1376" y="467"/><ellipse cx="1391" cy="483" fill="#ADD1B2" rx="11" ry="11" style="stroke:#A80036;stroke-width:1.0;"/><path d="M1393,479.5 Q1393.2031,479 1393.4375,478.75 Q1393.6719,478.5 1393.9375,478.5 Q1394.4063,478.5 1394.7031,478.7813 Q1395,479.0625 1395,479.7188 L1395,481.2813 Q1395,481.9375 1394.7188,482.2188 Q1394.4375,482.5 1394,482.5 Q1393.6094,482.5 1393.3594,482.3281 Q1393.1094,482.1563 1393,481.7031 Q1392.9531,481.3906 1392.7813,481.2188 Q1392.4688,480.8906 1391.9063,480.7031 Q1391.3438,480.5 1390.7813,480.5 Q1390.0781,480.5 1389.4844,480.7813 Q1388.9063,481.0625 1388.4531,481.6875 Q1388,482.3125 1388,483.1719 L1388,484.0938 Q1388,485.125 1388.8438,485.8125 Q1389.6875,486.5 1391.1875,486.5 Q1392.0781,486.5 1392.7031,486.2969 Q1393.0625,486.1875 1393.4688,485.8281 Q1393.7344,485.625 1393.875,485.5625 Q1394.0156,485.5 1394.1875,485.5 Q1394.5156,485.5 1394.75,485.7656 Q1395,486.0156 1395,486.375 Q1395,486.7188 1394.6563,487.125 Q1394.1563,487.7188 1393.3594,488.0469 Q1392.3125,488.5 1391.0313,488.5 Q1389.5313,488.5 1388.3281,487.9063 Q1387.3594,487.4375 1386.6719,486.4219 Q1386,485.4063 1386,484.2031 L1386,483.1094 Q1386,481.8594 1386.5938,480.7656 Q1387.2031,479.6719 1388.25,479.0938 Q1389.3125,478.5 1390.5,478.5 Q1391.2188,478.5 1391.8438,478.75 Q1392.4688,479 1393,479.5 Z " fill="#000000"/><text fill="#000000" font-family="sans-serif" font-size="12" lengthAdjust="spacing" textLength="93" x="1405" y="487.9102">ConstantBoolVar</text><line style="stroke:#A80036;stroke-width:1.5;" x1="1377" x2="1500" y1="499" y2="499"/><rect fill="none" height="6" style="stroke:#C82930;stroke-width:1.0;" width="6" x="1384" y="507"/><text fill="#000000" font-family="sans-serif" font-size="11" lengthAdjust="spacing" textLength="57" x="1396" y="514.4189">String name</text><rect fill="none" height="6" style="stroke:#C82930;stroke-width:1.0;" width="6" x="1384" y="520.8359"/><text fill="#000000" font-family="sans-serif" font-size="11" lengthAdjust="spacing" textLength="67" x="1396" y="528.2549">boolean value</text><line style="stroke:#A80036;stroke-width:1.5;" x1="1377" x2="1500" y1="534.6719" y2="534.6719"/><!--MD5=[7bde461c78c4cf0add84bb84677d5aca]
class ExpressionBoolVar--><rect codeLine="86" fill="#FEFECE" filter="url(#f1f00xhm748bgv)" height="75.6719" id="ExpressionBoolVar" style="stroke:#A80036;stroke-width:1.5;" width="137" x="1536" y="467"/><ellipse cx="1551" cy="483" fill="#ADD1B2" rx="11" ry="11" style="stroke:#A80036;stroke-width:1.0;"/><path d="M1553,479.5 Q1553.2031,479 1553.4375,478.75 Q1553.6719,478.5 1553.9375,478.5 Q1554.4063,478.5 1554.7031,478.7813 Q1555,479.0625 1555,479.7188 L1555,481.2813 Q1555,481.9375 1554.7188,482.2188 Q1554.4375,482.5 1554,482.5 Q1553.6094,482.5 1553.3594,482.3281 Q1553.1094,482.1563 1553,481.7031 Q1552.9531,481.3906 1552.7813,481.2188 Q1552.4688,480.8906 1551.9063,480.7031 Q1551.3438,480.5 1550.7813,480.5 Q1550.0781,480.5 1549.4844,480.7813 Q1548.9063,481.0625 1548.4531,481.6875 Q1548,482.3125 1548,483.1719 L1548,484.0938 Q1548,485.125 1548.8438,485.8125 Q1549.6875,486.5 1551.1875,486.5 Q1552.0781,486.5 1552.7031,486.2969 Q1553.0625,486.1875 1553.4688,485.8281 Q1553.7344,485.625 1553.875,485.5625 Q1554.0156,485.5 1554.1875,485.5 Q1554.5156,485.5 1554.75,485.7656 Q1555,486.0156 1555,486.375 Q1555,486.7188 1554.6563,487.125 Q1554.1563,487.7188 1553.3594,488.0469 Q1552.3125,488.5 1551.0313,488.5 Q1549.5313,488.5 1548.3281,487.9063 Q1547.3594,487.4375 1546.6719,486.4219 Q1546,485.4063 1546,484.2031 L1546,483.1094 Q1546,481.8594 1546.5938,480.7656 Q1547.2031,479.6719 1548.25,479.0938 Q1549.3125,478.5 1550.5,478.5 Q1551.2188,478.5 1551.8438,478.75 Q1552.4688,479 1553,479.5 Z " fill="#000000"/><text fill="#000000" font-family="sans-serif" font-size="12" lengthAdjust="spacing" textLength="105" x="1565" y="487.9102">ExpressionBoolVar</text><line style="stroke:#A80036;stroke-width:1.5;" x1="1537" x2="1672" y1="499" y2="499"/><rect fill="none" height="6" style="stroke:#C82930;stroke-width:1.0;" width="6" x="1544" y="507"/><text fill="#000000" font-family="sans-serif" font-size="11" lengthAdjust="spacing" textLength="57" x="1556" y="514.4189">String name</text><rect fill="none" height="6" style="stroke:#C82930;stroke-width:1.0;" width="6" x="1544" y="520.8359"/><text fill="#000000" font-family="sans-serif" font-size="11" lengthAdjust="spacing" textLength="100" x="1556" y="528.2549">BoolExpr expression</text><line style="stroke:#A80036;stroke-width:1.5;" x1="1537" x2="1672" y1="534.6719" y2="534.6719"/><!--MD5=[38381c1d55eb68df81eaa9168336cce6]
class UpdatableBoolVar--><rect codeLine="90" fill="#FEFECE" filter="url(#f1f00xhm748bgv)" height="48" id="UpdatableBoolVar" style="stroke:#A80036;stroke-width:1.5;" width="134" x="1206.5" y="481"/><ellipse cx="1221.5" cy="497" fill="#B4A7E5" rx="11" ry="11" style="stroke:#A80036;stroke-width:1.0;"/><path d="M1222.5,494 L1222.5,500 L1224.5,500 L1224.9844,500 L1225.5,500.625 L1225.5,501 L1225.5,501.375 L1224.9844,502 L1224.5,502 L1218.5,502 L1218.0156,502 L1217.5,501.375 L1217.5,501 L1217.5,500.625 L1218.0156,500 L1218.5,500 L1220.5,500 L1220.5,494 L1218.5,494 L1218.0156,494 L1217.5,493.375 L1217.5,493 L1217.5,492.625 L1218.0156,492 L1218.5,492 L1224.5,492 L1224.9844,492 L1225.5,492.625 L1225.5,493 L1225.5,493.375 L1224.9844,494 L1224.5,494 L1222.5,494 Z " fill="#000000"/><text fill="#000000" font-family="sans-serif" font-size="12" font-style="italic" lengthAdjust="spacing" textLength="102" x="1235.5" y="501.9102">UpdatableBoolVar</text><line style="stroke:#A80036;stroke-width:1.5;" x1="1207.5" x2="1339.5" y1="513" y2="513"/><line style="stroke:#A80036;stroke-width:1.5;" x1="1207.5" x2="1339.5" y1="521" y2="521"/><!--MD5=[199d2f2dc3523e74ae1e74d05f148b0e]
class InstantiatableBoolVar--><rect codeLine="91" fill="#FEFECE" filter="url(#f1f00xhm748bgv)" height="75.6719" id="InstantiatableBoolVar" style="stroke:#A80036;stroke-width:1.5;" width="149" x="1199" y="610"/><ellipse cx="1214" cy="626" fill="#ADD1B2" rx="11" ry="11" style="stroke:#A80036;stroke-width:1.0;"/><path d="M1216,622.5 Q1216.2031,622 1216.4375,621.75 Q1216.6719,621.5 1216.9375,621.5 Q1217.4063,621.5 1217.7031,621.7813 Q1218,622.0625 1218,622.7188 L1218,624.2813 Q1218,624.9375 1217.7188,625.2188 Q1217.4375,625.5 1217,625.5 Q1216.6094,625.5 1216.3594,625.3281 Q1216.1094,625.1563 1216,624.7031 Q1215.9531,624.3906 1215.7813,624.2188 Q1215.4688,623.8906 1214.9063,623.7031 Q1214.3438,623.5 1213.7813,623.5 Q1213.0781,623.5 1212.4844,623.7813 Q1211.9063,624.0625 1211.4531,624.6875 Q1211,625.3125 1211,626.1719 L1211,627.0938 Q1211,628.125 1211.8438,628.8125 Q1212.6875,629.5 1214.1875,629.5 Q1215.0781,629.5 1215.7031,629.2969 Q1216.0625,629.1875 1216.4688,628.8281 Q1216.7344,628.625 1216.875,628.5625 Q1217.0156,628.5 1217.1875,628.5 Q1217.5156,628.5 1217.75,628.7656 Q1218,629.0156 1218,629.375 Q1218,629.7188 1217.6563,630.125 Q1217.1563,630.7188 1216.3594,631.0469 Q1215.3125,631.5 1214.0313,631.5 Q1212.5313,631.5 1211.3281,630.9063 Q1210.3594,630.4375 1209.6719,629.4219 Q1209,628.4063 1209,627.2031 L1209,626.1094 Q1209,624.8594 1209.5938,623.7656 Q1210.2031,622.6719 1211.25,622.0938 Q1212.3125,621.5 1213.5,621.5 Q1214.2188,621.5 1214.8438,621.75 Q1215.4688,622 1216,622.5 Z " fill="#000000"/><text fill="#000000" font-family="sans-serif" font-size="12" lengthAdjust="spacing" textLength="117" x="1228" y="630.9102">InstantiatableBoolVar</text><line style="stroke:#A80036;stroke-width:1.5;" x1="1200" x2="1347" y1="642" y2="642"/><rect fill="none" height="6" style="stroke:#C82930;stroke-width:1.0;" width="6" x="1207" y="650"/><text fill="#000000" font-family="sans-serif" font-size="11" lengthAdjust="spacing" textLength="57" x="1219" y="657.4189">String name</text><rect fill="none" height="6" style="stroke:#C82930;stroke-width:1.0;" width="6" x="1207" y="663.8359"/><text fill="#000000" font-family="sans-serif" font-size="11" lengthAdjust="spacing" textLength="68" x="1219" y="671.2549">Boolean value</text><line style="stroke:#A80036;stroke-width:1.5;" x1="1200" x2="1347" y1="677.6719" y2="677.6719"/><!--MD5=[7feefdef0db7901585f7dbf063d8cf68]
class IntExpr--><rect codeLine="104" fill="#FEFECE" filter="url(#f1f00xhm748bgv)" height="48" id="IntExpr" style="stroke:#A80036;stroke-width:1.5;" width="71" x="2343" y="230"/><ellipse cx="2358" cy="246" fill="#B4A7E5" rx="11" ry="11" style="stroke:#A80036;stroke-width:1.0;"/><path d="M2359,243 L2359,249 L2361,249 L2361.4844,249 L2362,249.625 L2362,250 L2362,250.375 L2361.4844,251 L2361,251 L2355,251 L2354.5156,251 L2354,250.375 L2354,250 L2354,249.625 L2354.5156,249 L2355,249 L2357,249 L2357,243 L2355,243 L2354.5156,243 L2354,242.375 L2354,242 L2354,241.625 L2354.5156,241 L2355,241 L2361,241 L2361.4844,241 L2362,241.625 L2362,242 L2362,242.375 L2361.4844,243 L2361,243 L2359,243 Z " fill="#000000"/><text fill="#000000" font-family="sans-serif" font-size="12" font-style="italic" lengthAdjust="spacing" textLength="39" x="2372" y="250.9102">IntExpr</text><line style="stroke:#A80036;stroke-width:1.5;" x1="2344" x2="2413" y1="262" y2="262"/><line style="stroke:#A80036;stroke-width:1.5;" x1="2344" x2="2413" y1="270" y2="270"/><!--MD5=[0f96238084af9898a43132ca6ae6d4e0]
class ConstantIntExpr--><rect codeLine="105" fill="#FEFECE" filter="url(#f1f00xhm748bgv)" height="61.8359" id="ConstantIntExpr" style="stroke:#A80036;stroke-width:1.5;" width="119" x="2595" y="345"/><ellipse cx="2610" cy="361" fill="#ADD1B2" rx="11" ry="11" style="stroke:#A80036;stroke-width:1.0;"/><path d="M2612,357.5 Q2612.2031,357 2612.4375,356.75 Q2612.6719,356.5 2612.9375,356.5 Q2613.4063,356.5 2613.7031,356.7813 Q2614,357.0625 2614,357.7188 L2614,359.2813 Q2614,359.9375 2613.7188,360.2188 Q2613.4375,360.5 2613,360.5 Q2612.6094,360.5 2612.3594,360.3281 Q2612.1094,360.1563 2612,359.7031 Q2611.9531,359.3906 2611.7813,359.2188 Q2611.4688,358.8906 2610.9063,358.7031 Q2610.3438,358.5 2609.7813,358.5 Q2609.0781,358.5 2608.4844,358.7813 Q2607.9063,359.0625 2607.4531,359.6875 Q2607,360.3125 2607,361.1719 L2607,362.0938 Q2607,363.125 2607.8438,363.8125 Q2608.6875,364.5 2610.1875,364.5 Q2611.0781,364.5 2611.7031,364.2969 Q2612.0625,364.1875 2612.4688,363.8281 Q2612.7344,363.625 2612.875,363.5625 Q2613.0156,363.5 2613.1875,363.5 Q2613.5156,363.5 2613.75,363.7656 Q2614,364.0156 2614,364.375 Q2614,364.7188 2613.6563,365.125 Q2613.1563,365.7188 2612.3594,366.0469 Q2611.3125,366.5 2610.0313,366.5 Q2608.5313,366.5 2607.3281,365.9063 Q2606.3594,365.4375 2605.6719,364.4219 Q2605,363.4063 2605,362.2031 L2605,361.1094 Q2605,359.8594 2605.5938,358.7656 Q2606.2031,357.6719 2607.25,357.0938 Q2608.3125,356.5 2609.5,356.5 Q2610.2188,356.5 2610.8438,356.75 Q2611.4688,357 2612,357.5 Z " fill="#000000"/><text fill="#000000" font-family="sans-serif" font-size="12" lengthAdjust="spacing" textLength="87" x="2624" y="365.9102">ConstantIntExpr</text><line style="stroke:#A80036;stroke-width:1.5;" x1="2596" x2="2713" y1="377" y2="377"/><rect fill="none" height="6" style="stroke:#C82930;stroke-width:1.0;" width="6" x="2603" y="385"/><text fill="#000000" font-family="sans-serif" font-size="11" lengthAdjust="spacing" textLength="40" x="2615" y="392.4189">int value</text><line style="stroke:#A80036;stroke-width:1.5;" x1="2596" x2="2713" y1="398.8359" y2="398.8359"/><!--MD5=[c700e623548b60b6c2594d304a09f995]
class BiIntExpr--><rect codeLine="111" fill="#FEFECE" filter="url(#f1f00xhm748bgv)" height="48" id="BiIntExpr" style="stroke:#A80036;stroke-width:1.5;" width="82" x="2188.5" y="352"/><ellipse cx="2203.5" cy="368" fill="#B4A7E5" rx="11" ry="11" style="stroke:#A80036;stroke-width:1.0;"/><path d="M2204.5,365 L2204.5,371 L2206.5,371 L2206.9844,371 L2207.5,371.625 L2207.5,372 L2207.5,372.375 L2206.9844,373 L2206.5,373 L2200.5,373 L2200.0156,373 L2199.5,372.375 L2199.5,372 L2199.5,371.625 L2200.0156,371 L2200.5,371 L2202.5,371 L2202.5,365 L2200.5,365 L2200.0156,365 L2199.5,364.375 L2199.5,364 L2199.5,363.625 L2200.0156,363 L2200.5,363 L2206.5,363 L2206.9844,363 L2207.5,363.625 L2207.5,364 L2207.5,364.375 L2206.9844,365 L2206.5,365 L2204.5,365 Z " fill="#000000"/><text fill="#000000" font-family="sans-serif" font-size="12" font-style="italic" lengthAdjust="spacing" textLength="50" x="2217.5" y="372.9102">BiIntExpr</text><line style="stroke:#A80036;stroke-width:1.5;" x1="2189.5" x2="2269.5" y1="384" y2="384"/><line style="stroke:#A80036;stroke-width:1.5;" x1="2189.5" x2="2269.5" y1="392" y2="392"/><!--MD5=[f320f7b6dc7b9be62c0debf39e0a8e22]
class AddExpr--><rect codeLine="112" fill="#FEFECE" filter="url(#f1f00xhm748bgv)" height="75.6719" id="AddExpr" style="stroke:#A80036;stroke-width:1.5;" width="83" x="2247" y="467"/><ellipse cx="2264.7" cy="483" fill="#ADD1B2" rx="11" ry="11" style="stroke:#A80036;stroke-width:1.0;"/><path d="M2266.7,479.5 Q2266.9031,479 2267.1375,478.75 Q2267.3719,478.5 2267.6375,478.5 Q2268.1063,478.5 2268.4031,478.7813 Q2268.7,479.0625 2268.7,479.7188 L2268.7,481.2813 Q2268.7,481.9375 2268.4188,482.2188 Q2268.1375,482.5 2267.7,482.5 Q2267.3094,482.5 2267.0594,482.3281 Q2266.8094,482.1563 2266.7,481.7031 Q2266.6531,481.3906 2266.4813,481.2188 Q2266.1688,480.8906 2265.6063,480.7031 Q2265.0438,480.5 2264.4813,480.5 Q2263.7781,480.5 2263.1844,480.7813 Q2262.6063,481.0625 2262.1531,481.6875 Q2261.7,482.3125 2261.7,483.1719 L2261.7,484.0938 Q2261.7,485.125 2262.5438,485.8125 Q2263.3875,486.5 2264.8875,486.5 Q2265.7781,486.5 2266.4031,486.2969 Q2266.7625,486.1875 2267.1688,485.8281 Q2267.4344,485.625 2267.575,485.5625 Q2267.7156,485.5 2267.8875,485.5 Q2268.2156,485.5 2268.45,485.7656 Q2268.7,486.0156 2268.7,486.375 Q2268.7,486.7188 2268.3563,487.125 Q2267.8563,487.7188 2267.0594,488.0469 Q2266.0125,488.5 2264.7313,488.5 Q2263.2313,488.5 2262.0281,487.9063 Q2261.0594,487.4375 2260.3719,486.4219 Q2259.7,485.4063 2259.7,484.2031 L2259.7,483.1094 Q2259.7,481.8594 2260.2938,480.7656 Q2260.9031,479.6719 2261.95,479.0938 Q2263.0125,478.5 2264.2,478.5 Q2264.9188,478.5 2265.5438,478.75 Q2266.1688,479 2266.7,479.5 Z " fill="#000000"/><text fill="#000000" font-family="sans-serif" font-size="12" lengthAdjust="spacing" textLength="45" x="2279.3" y="487.9102">AddExpr</text><line style="stroke:#A80036;stroke-width:1.5;" x1="2248" x2="2329" y1="499" y2="499"/><rect fill="none" height="6" style="stroke:#C82930;stroke-width:1.0;" width="6" x="2255" y="507"/><text fill="#000000" font-family="sans-serif" font-size="11" lengthAdjust="spacing" textLength="51" x="2267" y="514.4189">IntExpr left</text><rect fill="none" height="6" style="stroke:#C82930;stroke-width:1.0;" width="6" x="2255" y="520.8359"/><text fill="#000000" font-family="sans-serif" font-size="11" lengthAdjust="spacing" textLength="57" x="2267" y="528.2549">IntExpr right</text><line style="stroke:#A80036;stroke-width:1.5;" x1="2248" x2="2329" y1="534.6719" y2="534.6719"/><!--MD5=[22357471ad90c459cd2cc77dd6b83c6b]
class DivExpr--><rect codeLine="116" fill="#FEFECE" filter="url(#f1f00xhm748bgv)" height="75.6719" id="DivExpr" style="stroke:#A80036;stroke-width:1.5;" width="83" x="2365" y="467"/><ellipse cx="2384.5" cy="483" fill="#ADD1B2" rx="11" ry="11" style="stroke:#A80036;stroke-width:1.0;"/><path d="M2386.5,479.5 Q2386.7031,479 2386.9375,478.75 Q2387.1719,478.5 2387.4375,478.5 Q2387.9063,478.5 2388.2031,478.7813 Q2388.5,479.0625 2388.5,479.7188 L2388.5,481.2813 Q2388.5,481.9375 2388.2188,482.2188 Q2387.9375,482.5 2387.5,482.5 Q2387.1094,482.5 2386.8594,482.3281 Q2386.6094,482.1563 2386.5,481.7031 Q2386.4531,481.3906 2386.2813,481.2188 Q2385.9688,480.8906 2385.4063,480.7031 Q2384.8438,480.5 2384.2813,480.5 Q2383.5781,480.5 2382.9844,480.7813 Q2382.4063,481.0625 2381.9531,481.6875 Q2381.5,482.3125 2381.5,483.1719 L2381.5,484.0938 Q2381.5,485.125 2382.3438,485.8125 Q2383.1875,486.5 2384.6875,486.5 Q2385.5781,486.5 2386.2031,486.2969 Q2386.5625,486.1875 2386.9688,485.8281 Q2387.2344,485.625 2387.375,485.5625 Q2387.5156,485.5 2387.6875,485.5 Q2388.0156,485.5 2388.25,485.7656 Q2388.5,486.0156 2388.5,486.375 Q2388.5,486.7188 2388.1563,487.125 Q2387.6563,487.7188 2386.8594,488.0469 Q2385.8125,488.5 2384.5313,488.5 Q2383.0313,488.5 2381.8281,487.9063 Q2380.8594,487.4375 2380.1719,486.4219 Q2379.5,485.4063 2379.5,484.2031 L2379.5,483.1094 Q2379.5,481.8594 2380.0938,480.7656 Q2380.7031,479.6719 2381.75,479.0938 Q2382.8125,478.5 2384,478.5 Q2384.7188,478.5 2385.3438,478.75 Q2385.9688,479 2386.5,479.5 Z " fill="#000000"/><text fill="#000000" font-family="sans-serif" font-size="12" lengthAdjust="spacing" textLength="41" x="2399.5" y="487.9102">DivExpr</text><line style="stroke:#A80036;stroke-width:1.5;" x1="2366" x2="2447" y1="499" y2="499"/><rect fill="none" height="6" style="stroke:#C82930;stroke-width:1.0;" width="6" x="2373" y="507"/><text fill="#000000" font-family="sans-serif" font-size="11" lengthAdjust="spacing" textLength="51" x="2385" y="514.4189">IntExpr left</text><rect fill="none" height="6" style="stroke:#C82930;stroke-width:1.0;" width="6" x="2373" y="520.8359"/><text fill="#000000" font-family="sans-serif" font-size="11" lengthAdjust="spacing" textLength="57" x="2385" y="528.2549">IntExpr right</text><line style="stroke:#A80036;stroke-width:1.5;" x1="2366" x2="2447" y1="534.6719" y2="534.6719"/><!--MD5=[d6710a09a22772a321b07555b87b9dec]
class MaxExpr--><rect codeLine="120" fill="#FEFECE" filter="url(#f1f00xhm748bgv)" height="75.6719" id="MaxExpr" style="stroke:#A80036;stroke-width:1.5;" width="83" x="2483" y="467"/><ellipse cx="2500.7" cy="483" fill="#ADD1B2" rx="11" ry="11" style="stroke:#A80036;stroke-width:1.0;"/><path d="M2502.7,479.5 Q2502.9031,479 2503.1375,478.75 Q2503.3719,478.5 2503.6375,478.5 Q2504.1063,478.5 2504.4031,478.7813 Q2504.7,479.0625 2504.7,479.7188 L2504.7,481.2813 Q2504.7,481.9375 2504.4188,482.2188 Q2504.1375,482.5 2503.7,482.5 Q2503.3094,482.5 2503.0594,482.3281 Q2502.8094,482.1563 2502.7,481.7031 Q2502.6531,481.3906 2502.4813,481.2188 Q2502.1688,480.8906 2501.6063,480.7031 Q2501.0438,480.5 2500.4813,480.5 Q2499.7781,480.5 2499.1844,480.7813 Q2498.6063,481.0625 2498.1531,481.6875 Q2497.7,482.3125 2497.7,483.1719 L2497.7,484.0938 Q2497.7,485.125 2498.5438,485.8125 Q2499.3875,486.5 2500.8875,486.5 Q2501.7781,486.5 2502.4031,486.2969 Q2502.7625,486.1875 2503.1688,485.8281 Q2503.4344,485.625 2503.575,485.5625 Q2503.7156,485.5 2503.8875,485.5 Q2504.2156,485.5 2504.45,485.7656 Q2504.7,486.0156 2504.7,486.375 Q2504.7,486.7188 2504.3563,487.125 Q2503.8563,487.7188 2503.0594,488.0469 Q2502.0125,488.5 2500.7313,488.5 Q2499.2313,488.5 2498.0281,487.9063 Q2497.0594,487.4375 2496.3719,486.4219 Q2495.7,485.4063 2495.7,484.2031 L2495.7,483.1094 Q2495.7,481.8594 2496.2938,480.7656 Q2496.9031,479.6719 2497.95,479.0938 Q2499.0125,478.5 2500.2,478.5 Q2500.9188,478.5 2501.5438,478.75 Q2502.1688,479 2502.7,479.5 Z " fill="#000000"/><text fill="#000000" font-family="sans-serif" font-size="12" lengthAdjust="spacing" textLength="45" x="2515.3" y="487.9102">MaxExpr</text><line style="stroke:#A80036;stroke-width:1.5;" x1="2484" x2="2565" y1="499" y2="499"/><rect fill="none" height="6" style="stroke:#C82930;stroke-width:1.0;" width="6" x="2491" y="507"/><text fill="#000000" font-family="sans-serif" font-size="11" lengthAdjust="spacing" textLength="51" x="2503" y="514.4189">IntExpr left</text><rect fill="none" height="6" style="stroke:#C82930;stroke-width:1.0;" width="6" x="2491" y="520.8359"/><text fill="#000000" font-family="sans-serif" font-size="11" lengthAdjust="spacing" textLength="57" x="2503" y="528.2549">IntExpr right</text><line style="stroke:#A80036;stroke-width:1.5;" x1="2484" x2="2565" y1="534.6719" y2="534.6719"/><!--MD5=[705ed15cf4861edd72a3d8108f3c6670]
class MinExpr--><rect codeLine="124" fill="#FEFECE" filter="url(#f1f00xhm748bgv)" height="75.6719" id="MinExpr" style="stroke:#A80036;stroke-width:1.5;" width="83" x="1893" y="467"/><ellipse cx="1911.6" cy="483" fill="#ADD1B2" rx="11" ry="11" style="stroke:#A80036;stroke-width:1.0;"/><path d="M1913.6,479.5 Q1913.8031,479 1914.0375,478.75 Q1914.2719,478.5 1914.5375,478.5 Q1915.0063,478.5 1915.3031,478.7813 Q1915.6,479.0625 1915.6,479.7188 L1915.6,481.2813 Q1915.6,481.9375 1915.3188,482.2188 Q1915.0375,482.5 1914.6,482.5 Q1914.2094,482.5 1913.9594,482.3281 Q1913.7094,482.1563 1913.6,481.7031 Q1913.5531,481.3906 1913.3813,481.2188 Q1913.0688,480.8906 1912.5063,480.7031 Q1911.9438,480.5 1911.3813,480.5 Q1910.6781,480.5 1910.0844,480.7813 Q1909.5063,481.0625 1909.0531,481.6875 Q1908.6,482.3125 1908.6,483.1719 L1908.6,484.0938 Q1908.6,485.125 1909.4438,485.8125 Q1910.2875,486.5 1911.7875,486.5 Q1912.6781,486.5 1913.3031,486.2969 Q1913.6625,486.1875 1914.0688,485.8281 Q1914.3344,485.625 1914.475,485.5625 Q1914.6156,485.5 1914.7875,485.5 Q1915.1156,485.5 1915.35,485.7656 Q1915.6,486.0156 1915.6,486.375 Q1915.6,486.7188 1915.2563,487.125 Q1914.7563,487.7188 1913.9594,488.0469 Q1912.9125,488.5 1911.6313,488.5 Q1910.1313,488.5 1908.9281,487.9063 Q1907.9594,487.4375 1907.2719,486.4219 Q1906.6,485.4063 1906.6,484.2031 L1906.6,483.1094 Q1906.6,481.8594 1907.1938,480.7656 Q1907.8031,479.6719 1908.85,479.0938 Q1909.9125,478.5 1911.1,478.5 Q1911.8188,478.5 1912.4438,478.75 Q1913.0688,479 1913.6,479.5 Z " fill="#000000"/><text fill="#000000" font-family="sans-serif" font-size="12" lengthAdjust="spacing" textLength="43" x="1926.4" y="487.9102">MinExpr</text><line style="stroke:#A80036;stroke-width:1.5;" x1="1894" x2="1975" y1="499" y2="499"/><rect fill="none" height="6" style="stroke:#C82930;stroke-width:1.0;" width="6" x="1901" y="507"/><text fill="#000000" font-family="sans-serif" font-size="11" lengthAdjust="spacing" textLength="51" x="1913" y="514.4189">IntExpr left</text><rect fill="none" height="6" style="stroke:#C82930;stroke-width:1.0;" width="6" x="1901" y="520.8359"/><text fill="#000000" font-family="sans-serif" font-size="11" lengthAdjust="spacing" textLength="57" x="1913" y="528.2549">IntExpr right</text><line style="stroke:#A80036;stroke-width:1.5;" x1="1894" x2="1975" y1="534.6719" y2="534.6719"/><!--MD5=[261cb2aab727da7119df7d36aed0fda8]
class MulExpr--><rect codeLine="128" fill="#FEFECE" filter="url(#f1f00xhm748bgv)" height="75.6719" id="MulExpr" style="stroke:#A80036;stroke-width:1.5;" width="83" x="2011" y="467"/><ellipse cx="2029.6" cy="483" fill="#ADD1B2" rx="11" ry="11" style="stroke:#A80036;stroke-width:1.0;"/><path d="M2031.6,479.5 Q2031.8031,479 2032.0375,478.75 Q2032.2719,478.5 2032.5375,478.5 Q2033.0063,478.5 2033.3031,478.7813 Q2033.6,479.0625 2033.6,479.7188 L2033.6,481.2813 Q2033.6,481.9375 2033.3188,482.2188 Q2033.0375,482.5 2032.6,482.5 Q2032.2094,482.5 2031.9594,482.3281 Q2031.7094,482.1563 2031.6,481.7031 Q2031.5531,481.3906 2031.3813,481.2188 Q2031.0688,480.8906 2030.5063,480.7031 Q2029.9438,480.5 2029.3813,480.5 Q2028.6781,480.5 2028.0844,480.7813 Q2027.5063,481.0625 2027.0531,481.6875 Q2026.6,482.3125 2026.6,483.1719 L2026.6,484.0938 Q2026.6,485.125 2027.4438,485.8125 Q2028.2875,486.5 2029.7875,486.5 Q2030.6781,486.5 2031.3031,486.2969 Q2031.6625,486.1875 2032.0688,485.8281 Q2032.3344,485.625 2032.475,485.5625 Q2032.6156,485.5 2032.7875,485.5 Q2033.1156,485.5 2033.35,485.7656 Q2033.6,486.0156 2033.6,486.375 Q2033.6,486.7188 2033.2563,487.125 Q2032.7563,487.7188 2031.9594,488.0469 Q2030.9125,488.5 2029.6313,488.5 Q2028.1313,488.5 2026.9281,487.9063 Q2025.9594,487.4375 2025.2719,486.4219 Q2024.6,485.4063 2024.6,484.2031 L2024.6,483.1094 Q2024.6,481.8594 2025.1938,480.7656 Q2025.8031,479.6719 2026.85,479.0938 Q2027.9125,478.5 2029.1,478.5 Q2029.8188,478.5 2030.4438,478.75 Q2031.0688,479 2031.6,479.5 Z " fill="#000000"/><text fill="#000000" font-family="sans-serif" font-size="12" lengthAdjust="spacing" textLength="43" x="2044.4" y="487.9102">MulExpr</text><line style="stroke:#A80036;stroke-width:1.5;" x1="2012" x2="2093" y1="499" y2="499"/><rect fill="none" height="6" style="stroke:#C82930;stroke-width:1.0;" width="6" x="2019" y="507"/><text fill="#000000" font-family="sans-serif" font-size="11" lengthAdjust="spacing" textLength="51" x="2031" y="514.4189">IntExpr left</text><rect fill="none" height="6" style="stroke:#C82930;stroke-width:1.0;" width="6" x="2019" y="520.8359"/><text fill="#000000" font-family="sans-serif" font-size="11" lengthAdjust="spacing" textLength="57" x="2031" y="528.2549">IntExpr right</text><line style="stroke:#A80036;stroke-width:1.5;" x1="2012" x2="2093" y1="534.6719" y2="534.6719"/><!--MD5=[6f9fff00a5a1734ddb68c39f4b9ad318]
class SubExpr--><rect codeLine="132" fill="#FEFECE" filter="url(#f1f00xhm748bgv)" height="75.6719" id="SubExpr" style="stroke:#A80036;stroke-width:1.5;" width="83" x="2129" y="467"/><ellipse cx="2146.25" cy="483" fill="#ADD1B2" rx="11" ry="11" style="stroke:#A80036;stroke-width:1.0;"/><path d="M2148.25,479.5 Q2148.4531,479 2148.6875,478.75 Q2148.9219,478.5 2149.1875,478.5 Q2149.6563,478.5 2149.9531,478.7813 Q2150.25,479.0625 2150.25,479.7188 L2150.25,481.2813 Q2150.25,481.9375 2149.9688,482.2188 Q2149.6875,482.5 2149.25,482.5 Q2148.8594,482.5 2148.6094,482.3281 Q2148.3594,482.1563 2148.25,481.7031 Q2148.2031,481.3906 2148.0313,481.2188 Q2147.7188,480.8906 2147.1563,480.7031 Q2146.5938,480.5 2146.0313,480.5 Q2145.3281,480.5 2144.7344,480.7813 Q2144.1563,481.0625 2143.7031,481.6875 Q2143.25,482.3125 2143.25,483.1719 L2143.25,484.0938 Q2143.25,485.125 2144.0938,485.8125 Q2144.9375,486.5 2146.4375,486.5 Q2147.3281,486.5 2147.9531,486.2969 Q2148.3125,486.1875 2148.7188,485.8281 Q2148.9844,485.625 2149.125,485.5625 Q2149.2656,485.5 2149.4375,485.5 Q2149.7656,485.5 2150,485.7656 Q2150.25,486.0156 2150.25,486.375 Q2150.25,486.7188 2149.9063,487.125 Q2149.4063,487.7188 2148.6094,488.0469 Q2147.5625,488.5 2146.2813,488.5 Q2144.7813,488.5 2143.5781,487.9063 Q2142.6094,487.4375 2141.9219,486.4219 Q2141.25,485.4063 2141.25,484.2031 L2141.25,483.1094 Q2141.25,481.8594 2141.8438,480.7656 Q2142.4531,479.6719 2143.5,479.0938 Q2144.5625,478.5 2145.75,478.5 Q2146.4688,478.5 2147.0938,478.75 Q2147.7188,479 2148.25,479.5 Z " fill="#000000"/><text fill="#000000" font-family="sans-serif" font-size="12" lengthAdjust="spacing" textLength="46" x="2160.75" y="487.9102">SubExpr</text><line style="stroke:#A80036;stroke-width:1.5;" x1="2130" x2="2211" y1="499" y2="499"/><rect fill="none" height="6" style="stroke:#C82930;stroke-width:1.0;" width="6" x="2137" y="507"/><text fill="#000000" font-family="sans-serif" font-size="11" lengthAdjust="spacing" textLength="51" x="2149" y="514.4189">IntExpr left</text><rect fill="none" height="6" style="stroke:#C82930;stroke-width:1.0;" width="6" x="2137" y="520.8359"/><text fill="#000000" font-family="sans-serif" font-size="11" lengthAdjust="spacing" textLength="57" x="2149" y="528.2549">IntExpr right</text><line style="stroke:#A80036;stroke-width:1.5;" x1="2130" x2="2211" y1="534.6719" y2="534.6719"/><!--MD5=[74f8e69918fdcfae68d77177734d3069]
class IntVar--><rect codeLine="145" fill="#FEFECE" filter="url(#f1f00xhm748bgv)" height="48" id="IntVar" style="stroke:#A80036;stroke-width:1.5;" width="65" x="2495" y="352"/><ellipse cx="2510" cy="368" fill="#B4A7E5" rx="11" ry="11" style="stroke:#A80036;stroke-width:1.0;"/><path d="M2511,365 L2511,371 L2513,371 L2513.4844,371 L2514,371.625 L2514,372 L2514,372.375 L2513.4844,373 L2513,373 L2507,373 L2506.5156,373 L2506,372.375 L2506,372 L2506,371.625 L2506.5156,371 L2507,371 L2509,371 L2509,365 L2507,365 L2506.5156,365 L2506,364.375 L2506,364 L2506,363.625 L2506.5156,363 L2507,363 L2513,363 L2513.4844,363 L2514,363.625 L2514,364 L2514,364.375 L2513.4844,365 L2513,365 L2511,365 Z " fill="#000000"/><text fill="#000000" font-family="sans-serif" font-size="12" font-style="italic" lengthAdjust="spacing" textLength="33" x="2524" y="372.9102">IntVar</text><line style="stroke:#A80036;stroke-width:1.5;" x1="2496" x2="2559" y1="384" y2="384"/><line style="stroke:#A80036;stroke-width:1.5;" x1="2496" x2="2559" y1="392" y2="392"/><!--MD5=[001c9028ac56f59d1b5199a7555fcad5]
class ConstantIntVar--><rect codeLine="146" fill="#FEFECE" filter="url(#f1f00xhm748bgv)" height="75.6719" id="ConstantIntVar" style="stroke:#A80036;stroke-width:1.5;" width="113" x="2601" y="467"/><ellipse cx="2616" cy="483" fill="#ADD1B2" rx="11" ry="11" style="stroke:#A80036;stroke-width:1.0;"/><path d="M2618,479.5 Q2618.2031,479 2618.4375,478.75 Q2618.6719,478.5 2618.9375,478.5 Q2619.4063,478.5 2619.7031,478.7813 Q2620,479.0625 2620,479.7188 L2620,481.2813 Q2620,481.9375 2619.7188,482.2188 Q2619.4375,482.5 2619,482.5 Q2618.6094,482.5 2618.3594,482.3281 Q2618.1094,482.1563 2618,481.7031 Q2617.9531,481.3906 2617.7813,481.2188 Q2617.4688,480.8906 2616.9063,480.7031 Q2616.3438,480.5 2615.7813,480.5 Q2615.0781,480.5 2614.4844,480.7813 Q2613.9063,481.0625 2613.4531,481.6875 Q2613,482.3125 2613,483.1719 L2613,484.0938 Q2613,485.125 2613.8438,485.8125 Q2614.6875,486.5 2616.1875,486.5 Q2617.0781,486.5 2617.7031,486.2969 Q2618.0625,486.1875 2618.4688,485.8281 Q2618.7344,485.625 2618.875,485.5625 Q2619.0156,485.5 2619.1875,485.5 Q2619.5156,485.5 2619.75,485.7656 Q2620,486.0156 2620,486.375 Q2620,486.7188 2619.6563,487.125 Q2619.1563,487.7188 2618.3594,488.0469 Q2617.3125,488.5 2616.0313,488.5 Q2614.5313,488.5 2613.3281,487.9063 Q2612.3594,487.4375 2611.6719,486.4219 Q2611,485.4063 2611,484.2031 L2611,483.1094 Q2611,481.8594 2611.5938,480.7656 Q2612.2031,479.6719 2613.25,479.0938 Q2614.3125,478.5 2615.5,478.5 Q2616.2188,478.5 2616.8438,478.75 Q2617.4688,479 2618,479.5 Z " fill="#000000"/><text fill="#000000" font-family="sans-serif" font-size="12" lengthAdjust="spacing" textLength="81" x="2630" y="487.9102">ConstantIntVar</text><line style="stroke:#A80036;stroke-width:1.5;" x1="2602" x2="2713" y1="499" y2="499"/><rect fill="none" height="6" style="stroke:#C82930;stroke-width:1.0;" width="6" x="2609" y="507"/><text fill="#000000" font-family="sans-serif" font-size="11" lengthAdjust="spacing" textLength="57" x="2621" y="514.4189">String name</text><rect fill="none" height="6" style="stroke:#C82930;stroke-width:1.0;" width="6" x="2609" y="520.8359"/><text fill="#000000" font-family="sans-serif" font-size="11" lengthAdjust="spacing" textLength="40" x="2621" y="528.2549">int value</text><line style="stroke:#A80036;stroke-width:1.5;" x1="2602" x2="2713" y1="534.6719" y2="534.6719"/><!--MD5=[94956bcf193365ea2786b4777208e15a]
class ExpressionIntVar--><rect codeLine="150" fill="#FEFECE" filter="url(#f1f00xhm748bgv)" height="75.6719" id="ExpressionIntVar" style="stroke:#A80036;stroke-width:1.5;" width="125" x="2749" y="467"/><ellipse cx="2764" cy="483" fill="#ADD1B2" rx="11" ry="11" style="stroke:#A80036;stroke-width:1.0;"/><path d="M2766,479.5 Q2766.2031,479 2766.4375,478.75 Q2766.6719,478.5 2766.9375,478.5 Q2767.4063,478.5 2767.7031,478.7813 Q2768,479.0625 2768,479.7188 L2768,481.2813 Q2768,481.9375 2767.7188,482.2188 Q2767.4375,482.5 2767,482.5 Q2766.6094,482.5 2766.3594,482.3281 Q2766.1094,482.1563 2766,481.7031 Q2765.9531,481.3906 2765.7813,481.2188 Q2765.4688,480.8906 2764.9063,480.7031 Q2764.3438,480.5 2763.7813,480.5 Q2763.0781,480.5 2762.4844,480.7813 Q2761.9063,481.0625 2761.4531,481.6875 Q2761,482.3125 2761,483.1719 L2761,484.0938 Q2761,485.125 2761.8438,485.8125 Q2762.6875,486.5 2764.1875,486.5 Q2765.0781,486.5 2765.7031,486.2969 Q2766.0625,486.1875 2766.4688,485.8281 Q2766.7344,485.625 2766.875,485.5625 Q2767.0156,485.5 2767.1875,485.5 Q2767.5156,485.5 2767.75,485.7656 Q2768,486.0156 2768,486.375 Q2768,486.7188 2767.6563,487.125 Q2767.1563,487.7188 2766.3594,488.0469 Q2765.3125,488.5 2764.0313,488.5 Q2762.5313,488.5 2761.3281,487.9063 Q2760.3594,487.4375 2759.6719,486.4219 Q2759,485.4063 2759,484.2031 L2759,483.1094 Q2759,481.8594 2759.5938,480.7656 Q2760.2031,479.6719 2761.25,479.0938 Q2762.3125,478.5 2763.5,478.5 Q2764.2188,478.5 2764.8438,478.75 Q2765.4688,479 2766,479.5 Z " fill="#000000"/><text fill="#000000" font-family="sans-serif" font-size="12" lengthAdjust="spacing" textLength="93" x="2778" y="487.9102">ExpressionIntVar</text><line style="stroke:#A80036;stroke-width:1.5;" x1="2750" x2="2873" y1="499" y2="499"/><rect fill="none" height="6" style="stroke:#C82930;stroke-width:1.0;" width="6" x="2757" y="507"/><text fill="#000000" font-family="sans-serif" font-size="11" lengthAdjust="spacing" textLength="57" x="2769" y="514.4189">String name</text><rect fill="none" height="6" style="stroke:#C82930;stroke-width:1.0;" width="6" x="2757" y="520.8359"/><text fill="#000000" font-family="sans-serif" font-size="11" lengthAdjust="spacing" textLength="90" x="2769" y="528.2549">IntExpr expression</text><line style="stroke:#A80036;stroke-width:1.5;" x1="2750" x2="2873" y1="534.6719" y2="534.6719"/><!--MD5=[caf948bcda8c7ca875173e5c86a37492]
class UpdatableIntVar--><rect codeLine="154" fill="#FEFECE" filter="url(#f1f00xhm748bgv)" height="48" id="UpdatableIntVar" style="stroke:#A80036;stroke-width:1.5;" width="123" x="2909" y="481"/><ellipse cx="2924" cy="497" fill="#B4A7E5" rx="11" ry="11" style="stroke:#A80036;stroke-width:1.0;"/><path d="M2925,494 L2925,500 L2927,500 L2927.4844,500 L2928,500.625 L2928,501 L2928,501.375 L2927.4844,502 L2927,502 L2921,502 L2920.5156,502 L2920,501.375 L2920,501 L2920,500.625 L2920.5156,500 L2921,500 L2923,500 L2923,494 L2921,494 L2920.5156,494 L2920,493.375 L2920,493 L2920,492.625 L2920.5156,492 L2921,492 L2927,492 L2927.4844,492 L2928,492.625 L2928,493 L2928,493.375 L2927.4844,494 L2927,494 L2925,494 Z " fill="#000000"/><text fill="#000000" font-family="sans-serif" font-size="12" font-style="italic" lengthAdjust="spacing" textLength="91" x="2938" y="501.9102">UpdatableIntVar</text><line style="stroke:#A80036;stroke-width:1.5;" x1="2910" x2="3031" y1="513" y2="513"/><line style="stroke:#A80036;stroke-width:1.5;" x1="2910" x2="3031" y1="521" y2="521"/><!--MD5=[eef29693b918479af673949c37d3402a]
class BoundedIntVar--><rect codeLine="155" fill="#FEFECE" filter="url(#f1f00xhm748bgv)" height="89.5078" id="BoundedIntVar" style="stroke:#A80036;stroke-width:1.5;" width="121" x="2910" y="603"/><ellipse cx="2928.6" cy="619" fill="#ADD1B2" rx="11" ry="11" style="stroke:#A80036;stroke-width:1.0;"/><path d="M2930.6,615.5 Q2930.8031,615 2931.0375,614.75 Q2931.2719,614.5 2931.5375,614.5 Q2932.0063,614.5 2932.3031,614.7813 Q2932.6,615.0625 2932.6,615.7188 L2932.6,617.2813 Q2932.6,617.9375 2932.3188,618.2188 Q2932.0375,618.5 2931.6,618.5 Q2931.2094,618.5 2930.9594,618.3281 Q2930.7094,618.1563 2930.6,617.7031 Q2930.5531,617.3906 2930.3813,617.2188 Q2930.0688,616.8906 2929.5063,616.7031 Q2928.9438,616.5 2928.3813,616.5 Q2927.6781,616.5 2927.0844,616.7813 Q2926.5063,617.0625 2926.0531,617.6875 Q2925.6,618.3125 2925.6,619.1719 L2925.6,620.0938 Q2925.6,621.125 2926.4438,621.8125 Q2927.2875,622.5 2928.7875,622.5 Q2929.6781,622.5 2930.3031,622.2969 Q2930.6625,622.1875 2931.0688,621.8281 Q2931.3344,621.625 2931.475,621.5625 Q2931.6156,621.5 2931.7875,621.5 Q2932.1156,621.5 2932.35,621.7656 Q2932.6,622.0156 2932.6,622.375 Q2932.6,622.7188 2932.2563,623.125 Q2931.7563,623.7188 2930.9594,624.0469 Q2929.9125,624.5 2928.6313,624.5 Q2927.1313,624.5 2925.9281,623.9063 Q2924.9594,623.4375 2924.2719,622.4219 Q2923.6,621.4063 2923.6,620.2031 L2923.6,619.1094 Q2923.6,617.8594 2924.1938,616.7656 Q2924.8031,615.6719 2925.85,615.0938 Q2926.9125,614.5 2928.1,614.5 Q2928.8188,614.5 2929.4438,614.75 Q2930.0688,615 2930.6,615.5 Z " fill="#000000"/><text fill="#000000" font-family="sans-serif" font-size="12" lengthAdjust="spacing" textLength="81" x="2943.4" y="623.9102">BoundedIntVar</text><line style="stroke:#A80036;stroke-width:1.5;" x1="2911" x2="3030" y1="635" y2="635"/><rect fill="none" height="6" style="stroke:#C82930;stroke-width:1.0;" width="6" x="2918" y="643"/><text fill="#000000" font-family="sans-serif" font-size="11" lengthAdjust="spacing" textLength="57" x="2930" y="650.4189">String name</text><rect fill="none" height="6" style="stroke:#C82930;stroke-width:1.0;" width="6" x="2918" y="656.8359"/><text fill="#000000" font-family="sans-serif" font-size="11" lengthAdjust="spacing" textLength="95" x="2930" y="664.2549">Integer lowerBound</text><rect fill="none" height="6" style="stroke:#C82930;stroke-width:1.0;" width="6" x="2918" y="670.6719"/><text fill="#000000" font-family="sans-serif" font-size="11" lengthAdjust="spacing" textLength="95" x="2930" y="678.0908">Integer upperBound</text><line style="stroke:#A80036;stroke-width:1.5;" x1="2911" x2="3030" y1="684.5078" y2="684.5078"/><!--MD5=[c83a84b29e204b072a513ed837d3e2d3]
class Constraint--><rect codeLine="169" fill="#FEFECE" filter="url(#f1f00xhm748bgv)" height="48" id="Constraint" style="stroke:#A80036;stroke-width:1.5;" width="88" x="3100.5" y="115"/><ellipse cx="3115.5" cy="131" fill="#B4A7E5" rx="11" ry="11" style="stroke:#A80036;stroke-width:1.0;"/><path d="M3116.5,128 L3116.5,134 L3118.5,134 L3118.9844,134 L3119.5,134.625 L3119.5,135 L3119.5,135.375 L3118.9844,136 L3118.5,136 L3112.5,136 L3112.0156,136 L3111.5,135.375 L3111.5,135 L3111.5,134.625 L3112.0156,134 L3112.5,134 L3114.5,134 L3114.5,128 L3112.5,128 L3112.0156,128 L3111.5,127.375 L3111.5,127 L3111.5,126.625 L3112.0156,126 L3112.5,126 L3118.5,126 L3118.9844,126 L3119.5,126.625 L3119.5,127 L3119.5,127.375 L3118.9844,128 L3118.5,128 L3116.5,128 Z " fill="#000000"/><text fill="#000000" font-family="sans-serif" font-size="12" font-style="italic" lengthAdjust="spacing" textLength="56" x="3129.5" y="135.9102">Constraint</text><line style="stroke:#A80036;stroke-width:1.5;" x1="3101.5" x2="3187.5" y1="147" y2="147"/><line style="stroke:#A80036;stroke-width:1.5;" x1="3101.5" x2="3187.5" y1="155" y2="155"/><!--MD5=[7fd3dfff6979af66d1e69993c9c05299]
class BoolExprConstraint--><rect codeLine="170" fill="#FEFECE" filter="url(#f1f00xhm748bgv)" height="61.8359" id="BoolExprConstraint" style="stroke:#A80036;stroke-width:1.5;" width="138" x="3088.5" y="223"/><ellipse cx="3103.5" cy="239" fill="#ADD1B2" rx="11" ry="11" style="stroke:#A80036;stroke-width:1.0;"/><path d="M3105.5,235.5 Q3105.7031,235 3105.9375,234.75 Q3106.1719,234.5 3106.4375,234.5 Q3106.9063,234.5 3107.2031,234.7813 Q3107.5,235.0625 3107.5,235.7188 L3107.5,237.2813 Q3107.5,237.9375 3107.2188,238.2188 Q3106.9375,238.5 3106.5,238.5 Q3106.1094,238.5 3105.8594,238.3281 Q3105.6094,238.1563 3105.5,237.7031 Q3105.4531,237.3906 3105.2813,237.2188 Q3104.9688,236.8906 3104.4063,236.7031 Q3103.8438,236.5 3103.2813,236.5 Q3102.5781,236.5 3101.9844,236.7813 Q3101.4063,237.0625 3100.9531,237.6875 Q3100.5,238.3125 3100.5,239.1719 L3100.5,240.0938 Q3100.5,241.125 3101.3438,241.8125 Q3102.1875,242.5 3103.6875,242.5 Q3104.5781,242.5 3105.2031,242.2969 Q3105.5625,242.1875 3105.9688,241.8281 Q3106.2344,241.625 3106.375,241.5625 Q3106.5156,241.5 3106.6875,241.5 Q3107.0156,241.5 3107.25,241.7656 Q3107.5,242.0156 3107.5,242.375 Q3107.5,242.7188 3107.1563,243.125 Q3106.6563,243.7188 3105.8594,244.0469 Q3104.8125,244.5 3103.5313,244.5 Q3102.0313,244.5 3100.8281,243.9063 Q3099.8594,243.4375 3099.1719,242.4219 Q3098.5,241.4063 3098.5,240.2031 L3098.5,239.1094 Q3098.5,237.8594 3099.0938,236.7656 Q3099.7031,235.6719 3100.75,235.0938 Q3101.8125,234.5 3103,234.5 Q3103.7188,234.5 3104.3438,234.75 Q3104.9688,235 3105.5,235.5 Z " fill="#000000"/><text fill="#000000" font-family="sans-serif" font-size="12" lengthAdjust="spacing" textLength="106" x="3117.5" y="243.9102">BoolExprConstraint</text><line style="stroke:#A80036;stroke-width:1.5;" x1="3089.5" x2="3225.5" y1="255" y2="255"/><rect fill="none" height="6" style="stroke:#C82930;stroke-width:1.0;" width="6" x="3096.5" y="263"/><text fill="#000000" font-family="sans-serif" font-size="11" lengthAdjust="spacing" textLength="68" x="3108.5" y="270.4189">BoolExpr expr</text><line style="stroke:#A80036;stroke-width:1.5;" x1="3089.5" x2="3225.5" y1="276.8359" y2="276.8359"/><!--MD5=[427c417db55bbd354b5848949f850e40]
class Elem--><rect codeLine="2" fill="#FEFECE" filter="url(#f1f00xhm748bgv)" height="48" id="Elem" style="stroke:#A80036;stroke-width:1.5;" width="61" x="1804" y="7"/><ellipse cx="1819" cy="23" fill="#B4A7E5" rx="11" ry="11" style="stroke:#A80036;stroke-width:1.0;"/><path d="M1820,20 L1820,26 L1822,26 L1822.4844,26 L1823,26.625 L1823,27 L1823,27.375 L1822.4844,28 L1822,28 L1816,28 L1815.5156,28 L1815,27.375 L1815,27 L1815,26.625 L1815.5156,26 L1816,26 L1818,26 L1818,20 L1816,20 L1815.5156,20 L1815,19.375 L1815,19 L1815,18.625 L1815.5156,18 L1816,18 L1822,18 L1822.4844,18 L1823,18.625 L1823,19 L1823,19.375 L1822.4844,20 L1822,20 L1820,20 Z " fill="#000000"/><text fill="#000000" font-family="sans-serif" font-size="12" font-style="italic" lengthAdjust="spacing" textLength="29" x="1833" y="27.9102">Elem</text><line style="stroke:#A80036;stroke-width:1.5;" x1="1805" x2="1864" y1="39" y2="39"/><line style="stroke:#A80036;stroke-width:1.5;" x1="1805" x2="1864" y1="47" y2="47"/><!--MD5=[45d7a04dc863bc0ed8f0c57430a02d4a]
class Expr--><rect codeLine="4" fill="#FEFECE" filter="url(#f1f00xhm748bgv)" height="48" id="Expr" style="stroke:#A80036;stroke-width:1.5;" width="57" x="1718" y="115"/><ellipse cx="1733" cy="131" fill="#B4A7E5" rx="11" ry="11" style="stroke:#A80036;stroke-width:1.0;"/><path d="M1734,128 L1734,134 L1736,134 L1736.4844,134 L1737,134.625 L1737,135 L1737,135.375 L1736.4844,136 L1736,136 L1730,136 L1729.5156,136 L1729,135.375 L1729,135 L1729,134.625 L1729.5156,134 L1730,134 L1732,134 L1732,128 L1730,128 L1729.5156,128 L1729,127.375 L1729,127 L1729,126.625 L1729.5156,126 L1730,126 L1736,126 L1736.4844,126 L1737,126.625 L1737,127 L1737,127.375 L1736.4844,128 L1736,128 L1734,128 Z " fill="#000000"/><text fill="#000000" font-family="sans-serif" font-size="12" font-style="italic" lengthAdjust="spacing" textLength="25" x="1747" y="135.9102">Expr</text><line style="stroke:#A80036;stroke-width:1.5;" x1="1719" x2="1774" y1="147" y2="147"/><line style="stroke:#A80036;stroke-width:1.5;" x1="1719" x2="1774" y1="155" y2="155"/><!--MD5=[731225e2007e13f9ac67fff186258580]
class Var--><rect codeLine="7" fill="#FEFECE" filter="url(#f1f00xhm748bgv)" height="48" id="Var" style="stroke:#A80036;stroke-width:1.5;" width="51" x="1809" y="230"/><ellipse cx="1824" cy="246" fill="#B4A7E5" rx="11" ry="11" style="stroke:#A80036;stroke-width:1.0;"/><path d="M1825,243 L1825,249 L1827,249 L1827.4844,249 L1828,249.625 L1828,250 L1828,250.375 L1827.4844,251 L1827,251 L1821,251 L1820.5156,251 L1820,250.375 L1820,250 L1820,249.625 L1820.5156,249 L1821,249 L1823,249 L1823,243 L1821,243 L1820.5156,243 L1820,242.375 L1820,242 L1820,241.625 L1820.5156,241 L1821,241 L1827,241 L1827.4844,241 L1828,241.625 L1828,242 L1828,242.375 L1827.4844,243 L1827,243 L1825,243 Z " fill="#000000"/><text fill="#000000" font-family="sans-serif" font-size="12" font-style="italic" lengthAdjust="spacing" textLength="19" x="1838" y="250.9102">Var</text><line style="stroke:#A80036;stroke-width:1.5;" x1="1810" x2="1859" y1="262" y2="262"/><line style="stroke:#A80036;stroke-width:1.5;" x1="1810" x2="1859" y1="270" y2="270"/><!--MD5=[c60e79e73ead6a092acce23006042100]
class UnExpr--><rect codeLine="11" fill="#FEFECE" filter="url(#f1f00xhm748bgv)" height="48" id="UnExpr" style="stroke:#A80036;stroke-width:1.5;" width="73" x="7" y="230"/><ellipse cx="22" cy="246" fill="#B4A7E5" rx="11" ry="11" style="stroke:#A80036;stroke-width:1.0;"/><path d="M23,243 L23,249 L25,249 L25.4844,249 L26,249.625 L26,250 L26,250.375 L25.4844,251 L25,251 L19,251 L18.5156,251 L18,250.375 L18,250 L18,249.625 L18.5156,249 L19,249 L21,249 L21,243 L19,243 L18.5156,243 L18,242.375 L18,242 L18,241.625 L18.5156,241 L19,241 L25,241 L25.4844,241 L26,241.625 L26,242 L26,242.375 L25.4844,243 L25,243 L23,243 Z " fill="#000000"/><text fill="#000000" font-family="sans-serif" font-size="12" font-style="italic" lengthAdjust="spacing" textLength="41" x="36" y="250.9102">UnExpr</text><line style="stroke:#A80036;stroke-width:1.5;" x1="8" x2="79" y1="262" y2="262"/><line style="stroke:#A80036;stroke-width:1.5;" x1="8" x2="79" y1="270" y2="270"/><!--MD5=[8fec9ebd3e9b504eff919c0af339410f]
class BiExpr--><rect codeLine="14" fill="#FEFECE" filter="url(#f1f00xhm748bgv)" height="48" id="BiExpr" style="stroke:#A80036;stroke-width:1.5;" width="68" x="1705.5" y="230"/><ellipse cx="1720.5" cy="246" fill="#B4A7E5" rx="11" ry="11" style="stroke:#A80036;stroke-width:1.0;"/><path d="M1721.5,243 L1721.5,249 L1723.5,249 L1723.9844,249 L1724.5,249.625 L1724.5,250 L1724.5,250.375 L1723.9844,251 L1723.5,251 L1717.5,251 L1717.0156,251 L1716.5,250.375 L1716.5,250 L1716.5,249.625 L1717.0156,249 L1717.5,249 L1719.5,249 L1719.5,243 L1717.5,243 L1717.0156,243 L1716.5,242.375 L1716.5,242 L1716.5,241.625 L1717.0156,241 L1717.5,241 L1723.5,241 L1723.9844,241 L1724.5,241.625 L1724.5,242 L1724.5,242.375 L1723.9844,243 L1723.5,243 L1721.5,243 Z " fill="#000000"/><text fill="#000000" font-family="sans-serif" font-size="12" font-style="italic" lengthAdjust="spacing" textLength="36" x="1734.5" y="250.9102">BiExpr</text><line style="stroke:#A80036;stroke-width:1.5;" x1="1706.5" x2="1772.5" y1="262" y2="262"/><line style="stroke:#A80036;stroke-width:1.5;" x1="1706.5" x2="1772.5" y1="270" y2="270"/><!--MD5=[8646f81c7eef4438cd822ea2501130d3]
reverse link Elem to Expr--><path codeLine="5" d="M1802.37,70.7 C1790.13,85.45 1776.56,101.79 1765.86,114.68 " fill="none" id="Elem-backto-Expr" style="stroke:#A80036;stroke-width:1.0;"/><polygon fill="none" points="1797.24,65.92,1815.41,55,1808.02,74.86,1797.24,65.92" style="stroke:#A80036;stroke-width:1.0;"/><!--MD5=[9f95007e90323afa6778d14b8a40a8e5]
reverse link Elem to Var--><path codeLine="8" d="M1834.5,75.36 C1834.5,121.62 1834.5,193.17 1834.5,229.75 " fill="none" id="Elem-backto-Var" style="stroke:#A80036;stroke-width:1.0;"/><polygon fill="none" points="1827.5,75.23,1834.5,55.23,1841.5,75.23,1827.5,75.23" style="stroke:#A80036;stroke-width:1.0;"/><!--MD5=[b1189c35d3e2686bfb0418f12dfd6029]
reverse link Expr to Var--><path codeLine="9" d="M1776.91,179.06 C1790.11,196 1805.12,215.27 1816.5,229.89 " fill="none" id="Expr-backto-Var" style="stroke:#A80036;stroke-width:1.0;stroke-dasharray:7.0,7.0;"/><polygon fill="none" points="1771.29,183.22,1764.52,163.14,1782.33,174.62,1771.29,183.22" style="stroke:#A80036;stroke-width:1.0;"/><!--MD5=[026b00b71bef66efd17d125bc5ad58c3]
reverse link Expr to UnExpr--><path codeLine="12" d="M1697.8,140 C1440.79,140.29 248.24,144.91 96.5,206 C83.72,211.14 71.98,220.78 62.81,230 " fill="none" id="Expr-backto-UnExpr" style="stroke:#A80036;stroke-width:1.0;"/><polygon fill="none" points="1697.83,133.01,1717.84,139.99,1697.84,147.01,1697.83,133.01" style="stroke:#A80036;stroke-width:1.0;"/><!--MD5=[fd9696ceac2c01536be8843492cf85ce]
reverse link Expr to BiExpr--><path codeLine="15" d="M1743.82,183.34 C1742.83,199.18 1741.76,216.49 1740.93,229.89 " fill="none" id="Expr-backto-BiExpr" style="stroke:#A80036;stroke-width:1.0;"/><polygon fill="none" points="1736.84,182.67,1745.07,163.14,1750.82,183.53,1736.84,182.67" style="stroke:#A80036;stroke-width:1.0;"/><!--MD5=[52f2ba3b5de7f3c9fb5cd21a4a1e11c3]
reverse link Expr to BoolExpr--><path codeLine="22" d="M1697.63,146.58 C1546.56,166.93 1088.83,228.58 948.71,247.45 " fill="none" id="Expr-backto-BoolExpr" style="stroke:#A80036;stroke-width:1.0;"/><polygon fill="none" points="1696.86,139.62,1717.62,143.89,1698.73,153.5,1696.86,139.62" style="stroke:#A80036;stroke-width:1.0;"/><!--MD5=[a4330334d45a2ecef1637fc61b95314d]
reverse link BoolExpr to ConstantBoolExpr--><path codeLine="23" d="M847.77,278.73 C796.82,298.98 723.67,328.04 671.1,348.93 " fill="none" id="BoolExpr-backto-ConstantBoolExpr" style="stroke:#A80036;stroke-width:1.0;"/><polygon fill="none" points="845.29,272.19,866.46,271.31,850.46,285.2,845.29,272.19" style="stroke:#A80036;stroke-width:1.0;"/><!--MD5=[a6721b34f72e5aefb79ef92671a38c26]
reverse link BoolExpr to BiBoolExpr--><path codeLine="34" d="M953.06,290.73 C978.32,310.55 1009,334.6 1031.09,351.93 " fill="none" id="BoolExpr-backto-BiBoolExpr" style="stroke:#A80036;stroke-width:1.0;"/><polygon fill="none" points="948.42,295.99,937,278.14,957.06,284.97,948.42,295.99" style="stroke:#A80036;stroke-width:1.0;"/><!--MD5=[a0e05ba93fdc72cfe1ec5d029bfc3973]
reverse link BiExpr to BiBoolExpr--><path codeLine="35" d="M1710.69,293.39 C1704.37,299.53 1697.23,305.13 1689.5,309 C1676.44,315.54 1250.67,356.79 1107.18,370.54 " fill="none" id="BiExpr-backto-BiBoolExpr" style="stroke:#A80036;stroke-width:1.0;stroke-dasharray:7.0,7.0;"/><polygon fill="none" points="1705.69,288.47,1724.2,278.16,1716.16,297.77,1705.69,288.47" style="stroke:#A80036;stroke-width:1.0;"/><!--MD5=[ec87ec1d6acf418fd337b68fda90c07f]
reverse link BiBoolExpr to AndExpr--><path codeLine="36" d="M1039.66,418.35 C1031.78,433.99 1022.87,451.67 1015.2,466.89 " fill="none" id="BiBoolExpr-backto-AndExpr" style="stroke:#A80036;stroke-width:1.0;"/><polygon fill="none" points="1033.51,415,1048.76,400.29,1046.01,421.3,1033.51,415" style="stroke:#A80036;stroke-width:1.0;"/><!--MD5=[90e55ce3fd75e2882f1127eda4313b9b]
reverse link BiBoolExpr to OrExpr--><path codeLine="37" d="M1081.34,418.35 C1089.22,433.99 1098.13,451.67 1105.8,466.89 " fill="none" id="BiBoolExpr-backto-OrExpr" style="stroke:#A80036;stroke-width:1.0;"/><polygon fill="none" points="1074.99,421.3,1072.24,400.29,1087.49,415,1074.99,421.3" style="stroke:#A80036;stroke-width:1.0;"/><!--MD5=[8e705739c0c151a51f3f0411e208d632]
reverse link BoolExpr to ReBoolExpr--><path codeLine="64" d="M862.24,290.73 C837.14,310.55 806.67,334.6 784.72,351.93 " fill="none" id="BoolExpr-backto-ReBoolExpr" style="stroke:#A80036;stroke-width:1.0;"/><polygon fill="none" points="858.16,285.04,878.19,278.14,866.83,296.02,858.16,285.04" style="stroke:#A80036;stroke-width:1.0;"/><!--MD5=[1c816b5b570989da118f15f36f93c3a6]
reverse link BiExpr to ReBoolExpr--><path codeLine="65" d="M1711.27,293.31 C1704.84,299.59 1697.51,305.25 1689.5,309 C1619.67,341.69 1073.31,338.23 996.5,345 C929.93,350.86 853.41,360.97 804.78,367.81 " fill="none" id="BiExpr-backto-ReBoolExpr" style="stroke:#A80036;stroke-width:1.0;stroke-dasharray:7.0,7.0;"/><polygon fill="none" points="1706.1,288.59,1724.56,278.19,1716.62,297.83,1706.1,288.59" style="stroke:#A80036;stroke-width:1.0;"/><!--MD5=[1c6fc45d989ed2ac70c904e289731f3f]
reverse link ReBoolExpr to EqExpr--><path codeLine="66" d="M755.5,420.44 C755.5,435.55 755.5,452.34 755.5,466.89 " fill="none" id="ReBoolExpr-backto-EqExpr" style="stroke:#A80036;stroke-width:1.0;"/><polygon fill="none" points="748.5,420.29,755.5,400.29,762.5,420.29,748.5,420.29" style="stroke:#A80036;stroke-width:1.0;"/><!--MD5=[e277d655d2a5447c5cc7475ffc055a47]
reverse link ReBoolExpr to GeExpr--><path codeLine="67" d="M790.82,415.02 C806.08,431.44 823.86,450.58 839.02,466.89 " fill="none" id="ReBoolExpr-backto-GeExpr" style="stroke:#A80036;stroke-width:1.0;"/><polygon fill="none" points="785.63,419.71,777.14,400.29,795.88,410.18,785.63,419.71" style="stroke:#A80036;stroke-width:1.0;"/><!--MD5=[a10e8b12e3c1d9416bd207ad5a055d04]
reverse link ReBoolExpr to GtExpr--><path codeLine="68" d="M688.8,406.91 C688.7,406.94 688.6,406.97 688.5,407 C539.23,452.58 488.24,411.16 342.5,467 C336.63,469.25 330.71,472.11 325,475.25 " fill="none" id="ReBoolExpr-backto-GtExpr" style="stroke:#A80036;stroke-width:1.0;"/><polygon fill="none" points="686.56,400.28,707.74,400.1,691.29,413.45,686.56,400.28" style="stroke:#A80036;stroke-width:1.0;"/><!--MD5=[3ad96f20f7ddd6d3beb43ea65bb85586]
reverse link ReBoolExpr to LeExpr--><path codeLine="69" d="M687.41,406.61 C585.74,440.18 551.21,427.71 460.5,467 C454.73,469.5 448.87,472.51 443.2,475.72 " fill="none" id="ReBoolExpr-backto-LeExpr" style="stroke:#A80036;stroke-width:1.0;"/><polygon fill="none" points="685.29,399.94,706.48,400.05,689.84,413.18,685.29,399.94" style="stroke:#A80036;stroke-width:1.0;"/><!--MD5=[debcde82b74eca508c8897c24739844f]
reverse link ReBoolExpr to LtExpr--><path codeLine="70" d="M688.92,409.09 C655.42,425.68 614.4,446.67 578.5,467 C572.82,470.22 566.91,473.72 561.12,477.25 " fill="none" id="ReBoolExpr-backto-LtExpr" style="stroke:#A80036;stroke-width:1.0;"/><polygon fill="none" points="686.14,402.65,707.18,400.11,692.32,415.22,686.14,402.65" style="stroke:#A80036;stroke-width:1.0;"/><!--MD5=[d7b8baf1f215f227c6d6bad9f7f585aa]
reverse link ReBoolExpr to NeExpr--><path codeLine="71" d="M720.18,415.02 C704.92,431.44 687.14,450.58 671.98,466.89 " fill="none" id="ReBoolExpr-backto-NeExpr" style="stroke:#A80036;stroke-width:1.0;"/><polygon fill="none" points="715.12,410.18,733.86,400.29,725.37,419.71,715.12,410.18" style="stroke:#A80036;stroke-width:1.0;"/><!--MD5=[8afed0725788dcff06fef8fb9bbd2f43]
reverse link BoolExpr to UnBoolExpr--><path codeLine="77" d="M846.24,264.85 C701.77,288.09 342.13,345.94 210.64,367.1 " fill="none" id="BoolExpr-backto-UnBoolExpr" style="stroke:#A80036;stroke-width:1.0;"/><polygon fill="none" points="845.47,257.89,866.33,261.62,847.69,271.71,845.47,257.89" style="stroke:#A80036;stroke-width:1.0;"/><!--MD5=[f8ac8f1f8e6cdde1cf7f0780acba74c9]
reverse link UnExpr to UnBoolExpr--><path codeLine="78" d="M80.65,292.86 C85.97,298.28 91.37,303.78 96.5,309 C110.48,323.22 126.17,339.15 138.63,351.8 " fill="none" id="UnExpr-backto-UnBoolExpr" style="stroke:#A80036;stroke-width:1.0;stroke-dasharray:7.0,7.0;"/><polygon fill="none" points="75.2,297.31,66.19,278.13,85.19,287.5,75.2,297.31" style="stroke:#A80036;stroke-width:1.0;"/><!--MD5=[3d49dd25a84fb697f406e85cbc82d910]
reverse link UnBoolExpr to NotExpr--><path codeLine="79" d="M160.82,420.46 C160.54,437.97 160.23,457.75 159.98,473.66 " fill="none" id="UnBoolExpr-backto-NotExpr" style="stroke:#A80036;stroke-width:1.0;"/><polygon fill="none" points="153.82,420.18,161.13,400.29,167.82,420.4,153.82,420.18" style="stroke:#A80036;stroke-width:1.0;"/><!--MD5=[3bd8c182f130ea889cf11cb05d12b9e3]
reverse link Var to BoolVar--><path codeLine="95" d="M1809.02,294.21 C1803.82,299.89 1797.95,305.12 1791.5,309 C1738.61,340.82 1556.37,362.9 1476.5,371.27 " fill="none" id="Var-backto-BoolVar" style="stroke:#A80036;stroke-width:1.0;"/><polygon fill="none" points="1803.62,289.75,1821.42,278.25,1814.68,298.34,1803.62,289.75" style="stroke:#A80036;stroke-width:1.0;"/><!--MD5=[60c9543d470022b661d8e2b95eb50581]
reverse link BoolExpr to BoolVar--><path codeLine="96" d="M968.52,268.79 C1078.99,293.75 1309.09,345.75 1400.18,366.34 " fill="none" id="BoolExpr-backto-BoolVar" style="stroke:#A80036;stroke-width:1.0;stroke-dasharray:7.0,7.0;"/><polygon fill="none" points="966.69,275.55,948.72,264.32,969.78,261.9,966.69,275.55" style="stroke:#A80036;stroke-width:1.0;"/><!--MD5=[652d62a03523befcd2f19b1edf53fd41]
reverse link BoolVar to ConstantBoolVar--><path codeLine="97" d="M1438.5,420.44 C1438.5,435.55 1438.5,452.34 1438.5,466.89 " fill="none" id="BoolVar-backto-ConstantBoolVar" style="stroke:#A80036;stroke-width:1.0;"/><polygon fill="none" points="1431.5,420.29,1438.5,400.29,1445.5,420.29,1431.5,420.29" style="stroke:#A80036;stroke-width:1.0;"/><!--MD5=[16932828a82859c0380369aa3ae54904]
reverse link BoolVar to ExpressionBoolVar--><path codeLine="98" d="M1484.9,412.5 C1507.06,429.46 1533.57,449.74 1556,466.89 " fill="none" id="BoolVar-backto-ExpressionBoolVar" style="stroke:#A80036;stroke-width:1.0;"/><polygon fill="none" points="1480.58,418.01,1468.95,400.29,1489.08,406.89,1480.58,418.01" style="stroke:#A80036;stroke-width:1.0;"/><!--MD5=[b15e6aa20bd09c8171e62342b834ea59]
reverse link BoolVar to UpdatableBoolVar--><path codeLine="99" d="M1392.08,412.73 C1363.72,434.56 1328.29,461.83 1303.57,480.85 " fill="none" id="BoolVar-backto-UpdatableBoolVar" style="stroke:#A80036;stroke-width:1.0;"/><polygon fill="none" points="1388.12,406.95,1408.24,400.29,1396.66,418.04,1388.12,406.95" style="stroke:#A80036;stroke-width:1.0;"/><!--MD5=[ad5fd7b335c1e2f3d8b068c5ca778a4f]
reverse link UpdatableBoolVar to InstantiatableBoolVar--><path codeLine="100" d="M1273.5,549.39 C1273.5,568.75 1273.5,591.32 1273.5,609.88 " fill="none" id="UpdatableBoolVar-backto-InstantiatableBoolVar" style="stroke:#A80036;stroke-width:1.0;"/><polygon fill="none" points="1266.5,549.28,1273.5,529.28,1280.5,549.28,1266.5,549.28" style="stroke:#A80036;stroke-width:1.0;"/><!--MD5=[d31f3eabdad987e22ed1606934447c58]
reverse link Expr to IntExpr--><path codeLine="108" d="M1795.11,148.69 C1917.37,170.55 2235.51,227.43 2342.67,246.59 " fill="none" id="Expr-backto-IntExpr" style="stroke:#A80036;stroke-width:1.0;"/><polygon fill="none" points="1793.75,155.56,1775.3,145.15,1796.22,141.78,1793.75,155.56" style="stroke:#A80036;stroke-width:1.0;"/><!--MD5=[792fde2ea89af414032ac734e69825e3]
reverse link IntExpr to ConstantIntExpr--><path codeLine="109" d="M2432.66,278.55 C2479.37,298.85 2546.71,328.14 2594.93,349.1 " fill="none" id="IntExpr-backto-ConstantIntExpr" style="stroke:#A80036;stroke-width:1.0;"/><polygon fill="none" points="2429.57,284.84,2414.02,270.44,2435.15,272,2429.57,284.84" style="stroke:#A80036;stroke-width:1.0;"/><!--MD5=[adf5cbbb1807bcc30c68cb6b76e39a8c]
reverse link IntExpr to BiIntExpr--><path codeLine="136" d="M2334.13,290.73 C2309.53,310.55 2279.66,334.6 2258.14,351.93 " fill="none" id="IntExpr-backto-BiIntExpr" style="stroke:#A80036;stroke-width:1.0;"/><polygon fill="none" points="2329.8,285.23,2349.77,278.14,2338.59,296.13,2329.8,285.23" style="stroke:#A80036;stroke-width:1.0;"/><!--MD5=[e9375f8f641b0d91bc9e85be06334b65]
reverse link BiExpr to BiIntExpr--><path codeLine="137" d="M1769.7,293 C1776.27,299.21 1783.63,304.93 1791.5,309 C1860.5,344.65 2093.32,365.13 2188.47,372.19 " fill="none" id="BiExpr-backto-BiIntExpr" style="stroke:#A80036;stroke-width:1.0;stroke-dasharray:7.0,7.0;"/><polygon fill="none" points="1764.42,297.61,1755.96,278.18,1774.69,288.09,1764.42,297.61" style="stroke:#A80036;stroke-width:1.0;"/><!--MD5=[96ba57c5c359541dae1d32b8f6f3a6cf]
reverse link BiIntExpr to AddExpr--><path codeLine="138" d="M2248.83,418.61 C2256.07,434.18 2264.23,451.76 2271.26,466.89 " fill="none" id="BiIntExpr-backto-AddExpr" style="stroke:#A80036;stroke-width:1.0;"/><polygon fill="none" points="2242.4,421.38,2240.32,400.29,2255.1,415.48,2242.4,421.38" style="stroke:#A80036;stroke-width:1.0;"/><!--MD5=[3d6d85a0425607e6feda64366968bf2d]
reverse link BiIntExpr to DivExpr--><path codeLine="139" d="M2278.35,412.05 C2305.51,431.54 2338.96,455.54 2364.87,474.13 " fill="none" id="BiIntExpr-backto-DivExpr" style="stroke:#A80036;stroke-width:1.0;"/><polygon fill="none" points="2274.13,417.64,2261.96,400.29,2282.3,406.27,2274.13,417.64" style="stroke:#A80036;stroke-width:1.0;"/><!--MD5=[b87849cbdbe4d81e7049c0ba353c7e1b]
reverse link BiIntExpr to MaxExpr--><path codeLine="140" d="M2289.72,396.31 C2338.24,412.73 2407.68,438.19 2465.5,467 C2471.24,469.86 2477.13,473.12 2482.86,476.49 " fill="none" id="BiIntExpr-backto-MaxExpr" style="stroke:#A80036;stroke-width:1.0;"/><polygon fill="none" points="2287.38,402.91,2270.61,389.95,2291.8,389.63,2287.38,402.91" style="stroke:#A80036;stroke-width:1.0;"/><!--MD5=[4a50c39e9a0b2fb2848003f60e43ae57]
reverse link BiIntExpr to MinExpr--><path codeLine="141" d="M2169.28,396.31 C2120.76,412.73 2051.32,438.19 1993.5,467 C1987.76,469.86 1981.87,473.12 1976.14,476.49 " fill="none" id="BiIntExpr-backto-MinExpr" style="stroke:#A80036;stroke-width:1.0;"/><polygon fill="none" points="2167.2,389.63,2188.39,389.95,2171.62,402.91,2167.2,389.63" style="stroke:#A80036;stroke-width:1.0;"/><!--MD5=[8d661fc02415b2b21976384e300b8740]
reverse link BiIntExpr to MulExpr--><path codeLine="142" d="M2180.65,412.05 C2153.49,431.54 2120.04,455.54 2094.13,474.13 " fill="none" id="BiIntExpr-backto-MulExpr" style="stroke:#A80036;stroke-width:1.0;"/><polygon fill="none" points="2176.7,406.27,2197.04,400.29,2184.87,417.64,2176.7,406.27" style="stroke:#A80036;stroke-width:1.0;"/><!--MD5=[8ded72253f71dcd90088454e6d6b41c8]
reverse link BiIntExpr to SubExpr--><path codeLine="143" d="M2210.17,418.61 C2202.93,434.18 2194.77,451.76 2187.74,466.89 " fill="none" id="BiIntExpr-backto-SubExpr" style="stroke:#A80036;stroke-width:1.0;"/><polygon fill="none" points="2203.9,415.48,2218.68,400.29,2216.6,421.38,2203.9,415.48" style="stroke:#A80036;stroke-width:1.0;"/><!--MD5=[f257228d573758dca6ea32f9ec67a6d6]
reverse link Var to IntVar--><path codeLine="160" d="M1858.71,294.47 C1863.89,300.2 1869.84,305.37 1876.5,309 C1957.22,352.94 2197.11,335.28 2288.5,345 C2362.31,352.85 2448.67,364.24 2494.68,370.48 " fill="none" id="Var-backto-IntVar" style="stroke:#A80036;stroke-width:1.0;"/><polygon fill="none" points="1852.91,298.41,1846.51,278.2,1864.11,290.01,1852.91,298.41" style="stroke:#A80036;stroke-width:1.0;"/><!--MD5=[9459a4b71fc14c2b84d1a6cf08251021]
reverse link IntExpr to IntVar--><path codeLine="161" d="M2422.87,290.73 C2447.47,310.55 2477.34,334.6 2498.86,351.93 " fill="none" id="IntExpr-backto-IntVar" style="stroke:#A80036;stroke-width:1.0;stroke-dasharray:7.0,7.0;"/><polygon fill="none" points="2418.41,296.13,2407.23,278.14,2427.2,285.23,2418.41,296.13" style="stroke:#A80036;stroke-width:1.0;"/><!--MD5=[9f10eacd2ab176c398cc187c4abfa117]
reverse link IntVar to ConstantIntVar--><path codeLine="162" d="M2565.9,414.51 C2582.82,431.04 2602.64,450.41 2619.52,466.89 " fill="none" id="IntVar-backto-ConstantIntVar" style="stroke:#A80036;stroke-width:1.0;"/><polygon fill="none" points="2560.76,419.28,2551.34,400.29,2570.54,409.26,2560.76,419.28" style="stroke:#A80036;stroke-width:1.0;"/><!--MD5=[1ab97e3483c867a4738d7144dd35e198]
reverse link IntVar to ExpressionIntVar--><path codeLine="163" d="M2578.13,406.47 C2646.84,439.35 2669.06,440.43 2731.5,467 C2737.13,469.4 2742.96,471.95 2748.78,474.55 " fill="none" id="IntVar-backto-ExpressionIntVar" style="stroke:#A80036;stroke-width:1.0;"/><polygon fill="none" points="2575.02,412.74,2560.14,397.66,2581.18,400.17,2575.02,412.74" style="stroke:#A80036;stroke-width:1.0;"/><!--MD5=[868c859c93d43144e365097b7b0e8bdb]
reverse link IntVar to UpdatableIntVar--><path codeLine="164" d="M2578.82,405.81 C2714.37,454.85 2762.15,425.08 2891.5,467 C2903.03,470.74 2915.06,475.75 2926.17,480.88 " fill="none" id="IntVar-backto-UpdatableIntVar" style="stroke:#A80036;stroke-width:1.0;"/><polygon fill="none" points="2576.26,412.33,2560.02,398.72,2581.2,399.23,2576.26,412.33" style="stroke:#A80036;stroke-width:1.0;"/><!--MD5=[568339535d8fd950c253a14c69364aaf]
reverse link UpdatableIntVar to BoundedIntVar--><path codeLine="165" d="M2970.5,549.43 C2970.5,566.4 2970.5,585.84 2970.5,602.87 " fill="none" id="UpdatableIntVar-backto-BoundedIntVar" style="stroke:#A80036;stroke-width:1.0;"/><polygon fill="none" points="2963.5,549.28,2970.5,529.28,2977.5,549.28,2963.5,549.28" style="stroke:#A80036;stroke-width:1.0;"/><!--MD5=[8dcbea3b8e84ccbb198acd4f5ae0872f]
reverse link Elem to Constraint--><path codeLine="173" d="M1885.41,36.12 C2096.68,53.21 2902.5,118.42 3100.41,134.43 " fill="none" id="Elem-backto-Constraint" style="stroke:#A80036;stroke-width:1.0;"/><polygon fill="none" points="1884.64,43.08,1865.27,34.49,1885.77,29.13,1884.64,43.08" style="stroke:#A80036;stroke-width:1.0;"/><!--MD5=[7d666cdcdb1ce44bc51053826c1967fd]
reverse link Constraint to BoolExprConstraint--><path codeLine="174" d="M3149.46,183.14 C3150.98,196.29 3152.61,210.47 3154,222.6 " fill="none" id="Constraint-backto-BoolExprConstraint" style="stroke:#A80036;stroke-width:1.0;"/><polygon fill="none" points="3142.49,183.81,3147.16,163.14,3156.4,182.21,3142.49,183.81" style="stroke:#A80036;stroke-width:1.0;"/><!--MD5=[2676654dc5476777f151c683f76f4613]
@startuml

interface Elem

interface Expr
Elem <|- - Expr

interface Var
Elem <|- - Var
Expr <|.. Var

interface UnExpr
Expr <|- - UnExpr

interface BiExpr
Expr <|- - BiExpr

together {
  interface BoolExpr
  class ConstantBoolExpr {
  - boolean value
  }
  Expr <|- - BoolExpr
  BoolExpr <|- - ConstantBoolExpr

  interface BiBoolExpr
  class AndExpr {
  - BoolExpr left
  - BoolExpr right
  }
  class OrExpr {
  - BoolExpr left
  - BoolExpr right
  }
  BoolExpr <|- - BiBoolExpr
  BiExpr <|.. BiBoolExpr
  BiBoolExpr <|- - AndExpr
  BiBoolExpr <|- - OrExpr

  interface ReBoolExpr
  class EqExpr {
  - IntExpr left
  - IntExpr right
  }
  class GeExpr {
  - IntExpr left
  - IntExpr right
  }
  class GtExpr {
  - IntExpr left
  - IntExpr right
  }
  class LeExpr {
  - IntExpr left
  - IntExpr right
  }
  class LtExpr {
  - IntExpr left
  - IntExpr right
  }
  class NeExpr {
  - IntExpr left
  - IntExpr right
  }
  BoolExpr <|- - ReBoolExpr
  BiExpr <|.. ReBoolExpr
  ReBoolExpr <|- - EqExpr
  ReBoolExpr <|- - GeExpr
  ReBoolExpr <|- - GtExpr
  ReBoolExpr <|- - LeExpr
  ReBoolExpr <|- - LtExpr
  ReBoolExpr <|- - NeExpr

  interface UnBoolExpr
  class NotExpr {
  - BoolExpr expr
  }
  BoolExpr <|- - UnBoolExpr
  UnExpr <|.. UnBoolExpr
  UnBoolExpr <|- - NotExpr

  interface BoolVar
  class ConstantBoolVar {
  - String name
  - boolean value
  }
  class ExpressionBoolVar {
  - String name
  - BoolExpr expression
  }
  interface UpdatableBoolVar
  class InstantiatableBoolVar {
  - String name
  - Boolean value
  }
  Var <|- - BoolVar
  BoolExpr <|.. BoolVar
  BoolVar <|- - ConstantBoolVar
  BoolVar <|- - ExpressionBoolVar
  BoolVar <|- - UpdatableBoolVar
  UpdatableBoolVar <|- - InstantiatableBoolVar
}

together {
  interface IntExpr
  class ConstantIntExpr {
  - int value
  }
  Expr <|- - IntExpr
  IntExpr <|- - ConstantIntExpr

  interface BiIntExpr
  class AddExpr {
  - IntExpr left
  - IntExpr right
  }
  class DivExpr {
  - IntExpr left
  - IntExpr right
  }
  class MaxExpr {
  - IntExpr left
  - IntExpr right
  }
  class MinExpr {
  - IntExpr left
  - IntExpr right
  }
  class MulExpr {
  - IntExpr left
  - IntExpr right
  }
  class SubExpr {
  - IntExpr left
  - IntExpr right
  }
  IntExpr <|- - BiIntExpr
  BiExpr <|.. BiIntExpr
  BiIntExpr <|- - AddExpr
  BiIntExpr <|- - DivExpr
  BiIntExpr <|- - MaxExpr
  BiIntExpr <|- - MinExpr
  BiIntExpr <|- - MulExpr
  BiIntExpr <|- - SubExpr

  interface IntVar
  class ConstantIntVar {
  - String name
  - int value
  }
  class ExpressionIntVar {
  - String name
  - IntExpr expression
  }
  interface UpdatableIntVar
  class BoundedIntVar {
  - String name
  - Integer lowerBound
  - Integer upperBound
  }
  Var <|- - IntVar
  IntExpr <|.. IntVar
  IntVar <|- - ConstantIntVar
  IntVar <|- - ExpressionIntVar
  IntVar <|- - UpdatableIntVar
  UpdatableIntVar <|- - BoundedIntVar
}

together {
  interface Constraint
  class BoolExprConstraint {
  - BoolExpr expr
  }
  Elem <|- - Constraint
  Constraint <|- - BoolExprConstraint
}
@enduml

PlantUML version 1.2021.7(Sun May 23 14:40:07 CEST 2021)
(GPL source distribution)
Java Runtime: OpenJDK Runtime Environment
JVM: OpenJDK 64-Bit Server VM
Default Encoding: Cp1252
Language: nl
Country: NL
--></g></svg>